<svg width="310" height="131" viewBox="0 0 310 131" fill="none" xmlns="http://www.w3.org/2000/svg">
<path d="M29.0691 11.2678C29.1491 9.98779 29.6291 9.08779 30.5091 8.56779C31.3891 8.04779 32.3491 7.86779 33.3891 8.02779C36.1891 8.42779 38.1491 9.28779 39.2691 10.6078C40.3891 11.9278 40.8691 13.7478 40.7091 16.0678C40.4691 20.8678 40.2091 25.9678 39.9291 31.3678C39.6491 36.7678 39.2291 41.5878 38.6691 45.8278C38.4291 47.9078 37.4891 49.5878 35.8491 50.8678C34.2091 52.1478 32.4291 52.7878 30.5091 52.7878C27.1491 52.7878 24.0691 52.8478 21.2691 52.9678C18.4691 53.0878 15.7891 53.4678 13.2291 54.1078C10.0291 54.8278 7.64909 54.4478 6.08909 52.9678C4.52909 51.4878 3.54909 49.0678 3.14909 45.7078C2.82909 42.9078 2.52909 40.2878 2.24909 37.8478C1.96909 35.4078 1.70909 33.0278 1.46909 30.7078C1.22909 28.3878 0.989091 26.0278 0.749091 23.6278C0.509091 21.2278 0.269091 18.7078 0.0290909 16.0678C-0.130909 14.4678 0.369091 13.2478 1.52909 12.4078C2.68909 11.5678 3.94909 11.1878 5.30909 11.2678C7.14909 11.3478 8.64909 11.7478 9.80909 12.4678C10.9691 13.1878 11.6291 14.2278 11.7891 15.5878C11.9491 17.1878 12.0691 18.7678 12.1491 20.3278C12.2291 21.8878 12.3091 23.3878 12.3891 24.8278C15.1891 24.1878 17.8891 23.7678 20.4891 23.5678C23.0891 23.3678 25.7891 23.3478 28.5891 23.5078C28.6691 21.3478 28.7291 19.2278 28.7691 17.1478C28.8091 15.0678 28.9091 13.1078 29.0691 11.2678V11.2678ZM12.7491 33.8278C12.9091 35.5078 13.0291 37.2078 13.1091 38.9278C13.1891 40.6478 13.3091 42.4278 13.4691 44.2678C16.0291 43.4678 18.5691 43.0278 21.0891 42.9478C23.6091 42.8678 25.8691 42.8678 27.8691 42.9478L28.2291 33.2278C25.5091 32.7478 22.8291 32.5678 20.1891 32.6878C17.5491 32.8078 15.0691 33.1878 12.7491 33.8278ZM51.8691 65.9878C52.0291 64.9478 52.1491 63.8878 52.2291 62.8078C52.3091 61.7278 52.4291 60.6278 52.5891 59.5078C52.6691 58.6278 52.8291 57.8478 53.0691 57.1678C53.3091 56.4878 53.8691 56.1878 54.7491 56.2678C55.7091 56.3478 56.6691 56.4878 57.6291 56.6878C58.5891 56.8878 59.4691 57.2678 60.2691 57.8278C61.1491 58.4678 61.6691 59.3478 61.8291 60.4678C61.9891 61.5878 61.9891 62.8678 61.8291 64.3078C61.5891 67.2678 61.3291 70.1078 61.0491 72.8278C60.7691 75.5478 60.4691 78.3878 60.1491 81.3478C59.7491 85.5078 57.7091 87.5478 54.0291 87.4678H50.6691C49.3891 87.4678 48.0691 87.5078 46.7091 87.5878C45.3491 87.6678 43.9891 87.7678 42.6291 87.8878C41.2691 88.0078 40.0291 88.1478 38.9091 88.3078C35.7891 88.7878 33.9491 86.9478 33.3891 82.7878C33.0691 79.6678 32.7691 76.5878 32.4891 73.5478C32.2091 70.5078 31.9891 67.4278 31.8291 64.3078C31.8291 63.8278 31.8091 63.2278 31.7691 62.5078C31.7291 61.7878 31.7091 61.1878 31.7091 60.7078C31.7091 59.7478 31.8091 58.7878 32.0091 57.8278C32.2091 56.8678 32.9891 56.4678 34.3491 56.6278C35.5491 56.7878 36.6491 56.9878 37.6491 57.2278C38.6491 57.4678 39.4691 57.8678 40.1091 58.4278C40.7491 58.9078 41.0691 59.5278 41.0691 60.2878V64.7278C41.0691 65.5678 41.1091 66.2678 41.1891 66.8278C42.7891 66.6678 44.5691 66.5278 46.5291 66.4078C48.4891 66.2878 50.2691 66.1478 51.8691 65.9878V65.9878ZM51.7491 71.9878C50.3091 72.0678 48.6091 72.1678 46.6491 72.2878C44.6891 72.4078 42.9891 72.5478 41.5491 72.7078L41.7891 80.6278C43.2291 80.3078 44.8491 80.1078 46.6491 80.0278C48.4491 79.9478 50.0291 79.9478 51.3891 80.0278L51.7491 71.9878ZM51.1491 4.42779C50.7491 3.22779 50.7491 2.26779 51.1491 1.54779C51.6291 0.907791 52.5091 0.627791 53.7891 0.707791C55.9491 0.947791 57.8291 1.76779 59.4291 3.16779C61.0291 4.56779 62.3491 6.30779 63.3891 8.38779C64.2691 10.3078 65.0091 12.3478 65.6091 14.5078C66.2091 16.6678 66.7091 18.7078 67.1091 20.6278C69.1891 19.8278 71.4291 19.4478 73.8291 19.4878C76.2291 19.5278 78.5091 19.8678 80.6691 20.5078C82.1091 20.9878 83.1291 21.7078 83.7291 22.6678C84.3291 23.6278 84.5491 24.5478 84.3891 25.4278C84.2291 26.3078 83.7291 26.9478 82.8891 27.3478C82.0491 27.7478 81.0691 27.7878 79.9491 27.4678C77.8691 26.9878 75.7891 26.7678 73.7091 26.8078C71.6291 26.8478 69.7091 27.3078 67.9491 28.1878C68.1091 31.6278 68.0691 35.1278 67.8291 38.6878C67.5891 42.2478 67.1091 45.3478 66.3891 47.9878C65.1891 52.5478 62.3491 54.7078 57.8691 54.4678C55.7891 54.3078 54.0891 53.4678 52.7691 51.9478C51.4491 50.4278 50.9891 48.5078 51.3891 46.1878C51.7091 44.5078 51.9891 42.6878 52.2291 40.7278C52.4691 38.7678 52.6891 36.8278 52.8891 34.9078C53.0891 32.9878 53.2691 31.1478 53.4291 29.3878C53.5891 27.6278 53.6691 26.0678 53.6691 24.7078C53.7491 21.0278 53.5691 17.5678 53.1291 14.3278C52.6891 11.0878 52.0291 7.78779 51.1491 4.42779V4.42779Z" fill="white"/>
<path d="M128.429 50.7478C126.509 50.9878 124.929 50.9078 123.689 50.5078C122.449 50.1078 121.469 49.4278 120.749 48.4678C120.029 47.5078 119.509 46.3478 119.189 44.9878C118.869 43.6278 118.669 42.1078 118.589 40.4278C118.429 38.9878 118.289 37.2878 118.169 35.3278C118.049 33.3678 117.929 31.3078 117.809 29.1478C117.689 26.9878 117.569 24.7878 117.449 22.5478C117.329 20.3078 117.189 18.1078 117.029 15.9478C116.869 13.8678 117.149 12.2678 117.869 11.1478C118.589 10.0278 119.629 9.38779 120.989 9.22779C122.829 9.14779 124.209 9.44779 125.129 10.1278C126.049 10.8078 126.749 11.7078 127.229 12.8278C128.429 12.5878 129.789 12.3678 131.309 12.1678C132.829 11.9678 134.369 11.7678 135.929 11.5678C137.489 11.3678 139.029 11.2078 140.549 11.0878C142.069 10.9678 143.429 10.8678 144.629 10.7878C148.709 10.6278 151.809 11.2878 153.929 12.7678C156.049 14.2478 157.029 17.1078 156.869 21.3478C156.789 22.7078 156.709 24.2278 156.629 25.9078C156.549 27.5878 156.469 29.2878 156.389 31.0078C156.309 32.7278 156.209 34.4478 156.089 36.1678C155.969 37.8878 155.829 39.4278 155.669 40.7878C155.509 42.2278 155.289 43.4878 155.009 44.5678C154.729 45.6478 154.269 46.5278 153.629 47.2078C152.989 47.8878 152.129 48.4078 151.049 48.7678C149.969 49.1278 148.549 49.3078 146.789 49.3078C143.349 49.3078 140.189 49.4478 137.309 49.7278C134.429 50.0078 131.469 50.3478 128.429 50.7478V50.7478ZM144.869 40.1878C144.869 38.9078 144.889 37.4878 144.929 35.9278C144.969 34.3678 145.009 32.7678 145.049 31.1278C145.089 29.4878 145.129 27.8878 145.169 26.3278C145.209 24.7678 145.229 23.3878 145.229 22.1878C145.229 20.6678 144.549 19.9078 143.189 19.9078C140.629 19.9878 138.049 20.1678 135.449 20.4478C132.849 20.7278 130.469 21.0278 128.309 21.3478L129.869 41.5078C132.429 40.9478 134.989 40.5878 137.549 40.4278C140.109 40.2678 142.549 40.1878 144.869 40.1878V40.1878ZM170.069 64.4278C168.469 64.3478 166.749 64.5678 164.909 65.0878C163.069 65.6078 161.149 66.5078 159.149 67.7878C158.269 68.3478 157.229 68.5478 156.029 68.3878C154.829 68.2278 153.949 67.5878 153.389 66.4678C152.909 65.5078 152.969 64.4678 153.569 63.3478C154.169 62.2278 155.029 61.2278 156.149 60.3478C158.149 58.9878 160.189 57.8878 162.269 57.0478C164.349 56.2078 167.069 55.7078 170.429 55.5478C172.509 55.4678 174.549 55.6878 176.549 56.2078C178.549 56.7278 180.349 57.5478 181.949 58.6678C183.549 59.7878 184.869 61.2278 185.909 62.9878C186.949 64.7478 187.589 66.8278 187.829 69.2278C187.989 71.3878 187.869 73.7278 187.469 76.2478C187.069 78.7678 186.309 81.0678 185.189 83.1478C182.709 87.7878 179.709 89.6678 176.189 88.7878C174.349 88.3078 173.329 87.1678 173.129 85.3678C172.929 83.5678 173.189 81.6678 173.909 79.6678C174.549 77.9078 175.129 76.2678 175.649 74.7478C176.169 73.2278 176.349 71.7478 176.189 70.3078C176.029 68.4678 175.309 67.0478 174.029 66.0478C172.749 65.0478 171.429 64.5078 170.069 64.4278V64.4278ZM190.589 44.7478C190.189 47.9478 188.969 50.2678 186.929 51.7078C184.889 53.1478 182.829 53.7878 180.749 53.6278C179.629 53.5478 178.569 53.2678 177.569 52.7878C176.569 52.3078 175.729 51.6478 175.049 50.8078C174.369 49.9678 173.869 48.9478 173.549 47.7478C173.229 46.5478 173.229 45.2278 173.549 43.7878C173.949 41.6278 174.289 39.5678 174.569 37.6078C174.849 35.6478 175.109 33.7478 175.349 31.9078C173.269 31.0278 171.269 30.6878 169.349 30.8878C167.429 31.0878 165.669 31.5478 164.069 32.2678C162.949 32.7478 161.869 32.9278 160.829 32.8078C159.789 32.6878 158.989 32.1478 158.429 31.1878C157.789 30.1478 157.789 29.0478 158.429 27.8878C159.069 26.7278 159.949 25.7478 161.069 24.9478C162.669 23.8278 164.889 23.0878 167.729 22.7278C170.569 22.3678 173.269 22.4678 175.829 23.0278C175.909 19.9878 175.829 16.9078 175.589 13.7878C175.349 10.6678 174.949 7.22779 174.389 3.46779C174.149 1.22779 175.109 0.187787 177.269 0.347787C179.989 0.587787 182.429 2.26779 184.589 5.38779C186.109 7.46779 187.329 10.3278 188.249 13.9678C189.169 17.6078 189.949 21.7078 190.589 26.2678C190.669 27.4678 190.749 28.8678 190.829 30.4678C190.909 32.0678 190.949 33.7078 190.949 35.3878C190.949 37.0678 190.929 38.7278 190.889 40.3678C190.849 42.0078 190.749 43.4678 190.589 44.7478V44.7478Z" fill="white"/>
<path d="M205.709 30.8278C204.349 30.9078 203.009 30.6678 201.689 30.1078C200.369 29.5478 199.669 28.4678 199.589 26.8678C199.509 25.5878 200.049 24.5678 201.209 23.8078C202.369 23.0478 203.589 22.5078 204.869 22.1878C213.429 19.9478 222.149 19.3878 231.029 20.5078C232.149 20.6678 233.289 20.8678 234.449 21.1078C235.609 21.3478 236.749 21.6678 237.869 22.0678C239.389 22.5478 240.549 23.4478 241.349 24.7678C242.149 26.0878 242.469 27.4678 242.309 28.9078C242.069 30.2678 241.489 31.2678 240.569 31.9078C239.649 32.5478 238.629 32.8278 237.509 32.7478C235.429 32.5878 233.409 32.3878 231.449 32.1478C229.489 31.9078 227.549 31.7078 225.629 31.5478C225.869 36.6678 225.149 41.9878 223.469 47.5078C227.229 48.8678 230.649 50.4878 233.729 52.3678C236.809 54.2478 239.149 56.9478 240.749 60.4678C241.309 61.8278 241.429 63.2678 241.109 64.7878C240.789 66.3078 240.069 67.3878 238.949 68.0278C237.429 68.9078 235.929 69.1478 234.449 68.7478C232.969 68.3478 231.909 67.4678 231.269 66.1078C229.989 63.3878 228.569 61.0078 227.009 58.9678C225.449 56.9278 223.509 55.2278 221.189 53.8678C220.069 56.0278 218.769 58.1078 217.289 60.1078C215.809 62.1078 214.309 63.9078 212.789 65.5078C212.069 66.3078 211.229 67.0278 210.269 67.6678C209.309 68.3078 208.349 68.7878 207.389 69.1078C206.429 69.4278 205.469 69.5278 204.509 69.4078C203.549 69.2878 202.709 68.8678 201.989 68.1478C200.389 66.7078 199.849 65.1278 200.369 63.4078C200.889 61.6878 201.909 60.0678 203.429 58.5478C207.029 54.9478 209.949 50.7478 212.189 45.9478C214.429 41.1478 215.749 36.1478 216.149 30.9478C214.229 30.8678 212.349 30.8278 210.509 30.8278H205.709V30.8278ZM287.789 35.8678C288.349 36.5078 288.609 37.2678 288.569 38.1478C288.529 39.0278 288.309 39.7478 287.909 40.3078C286.789 41.5078 285.349 41.8278 283.589 41.2678C282.469 41.0278 281.349 40.8078 280.229 40.6078C279.109 40.4078 277.869 40.3078 276.509 40.3078C275.229 40.2278 273.889 40.3278 272.489 40.6078C271.089 40.8878 269.869 41.3878 268.829 42.1078C268.909 44.1078 268.949 46.2478 268.949 48.5278C268.949 50.8078 268.909 53.1278 268.829 55.4878C268.749 57.8478 268.589 60.1478 268.349 62.3878C268.109 64.6278 267.789 66.7078 267.389 68.6278C266.829 71.4278 265.669 73.6078 263.909 75.1678C262.149 76.7278 259.749 77.3078 256.709 76.9078C254.469 76.6678 252.709 75.5678 251.429 73.6078C250.149 71.6478 249.789 68.8678 250.349 65.2678C250.589 63.8278 250.869 61.9478 251.189 59.6278C251.509 57.3078 251.849 54.8678 252.209 52.3078C252.569 49.7478 252.889 47.2278 253.169 44.7478C253.449 42.2678 253.629 40.1878 253.709 38.5078C253.869 34.3478 253.969 29.9678 254.009 25.3678C254.049 20.7678 253.629 16.4278 252.749 12.3478C252.509 11.1478 252.349 10.1278 252.269 9.28778C252.189 8.44778 252.469 7.86778 253.109 7.54778C253.669 7.14778 254.269 7.00778 254.909 7.12778C255.549 7.24778 256.109 7.42778 256.589 7.66778C258.669 8.78778 260.289 10.1478 261.449 11.7478C262.609 13.3478 263.589 15.1478 264.389 17.1478C264.709 18.0278 265.049 19.1278 265.409 20.4478C265.769 21.7678 266.109 23.1678 266.429 24.6478C266.749 26.1278 267.049 27.5878 267.329 29.0278C267.609 30.4678 267.869 31.7878 268.109 32.9878C269.469 32.5078 270.829 32.1878 272.189 32.0278C273.549 31.8678 274.909 31.8278 276.269 31.9078C278.189 31.9878 280.249 32.2878 282.449 32.8078C284.649 33.3278 286.429 34.3478 287.789 35.8678V35.8678Z" fill="white"/>
<path d="M299.429 78.2278C297.669 78.0678 296.309 77.3678 295.349 76.1278C294.389 74.8878 293.989 73.3878 294.149 71.6278C294.309 69.7878 295.049 68.3078 296.369 67.1878C297.689 66.0678 299.269 65.5478 301.109 65.6278C302.709 65.7078 304.109 66.3478 305.309 67.5478C306.509 68.7478 307.109 70.1878 307.109 71.8678C307.109 73.8678 306.369 75.4878 304.889 76.7278C303.409 77.9678 301.589 78.4678 299.429 78.2278V78.2278ZM305.789 52.0678C305.309 53.9078 304.489 55.2078 303.329 55.9678C302.169 56.7278 301.029 57.0278 299.909 56.8678C298.789 56.7078 297.809 56.1478 296.969 55.1878C296.129 54.2278 295.749 52.9478 295.829 51.3478C296.069 45.0278 296.189 39.1478 296.189 33.7078C296.189 28.2678 295.909 22.7878 295.349 17.2678C294.869 12.3878 295.049 9.14779 295.889 7.54779C296.729 5.94779 298.549 5.34779 301.349 5.74779C302.789 5.90779 304.009 6.42779 305.009 7.30779C306.009 8.18779 306.829 9.32779 307.469 10.7278C308.109 12.1278 308.569 13.7278 308.849 15.5278C309.129 17.3278 309.269 19.2278 309.269 21.2278C309.349 26.9078 309.109 32.1278 308.549 36.8878C307.989 41.6478 307.069 46.7078 305.789 52.0678V52.0678Z" fill="white"/>
<path d="M4.57202 119.668C4.57202 118.948 5.01202 118.588 5.88202 118.588H24.422C25.302 118.588 25.732 118.958 25.732 119.688C25.732 120.418 25.292 120.738 24.422 120.738H5.88202C5.00202 120.738 4.57202 120.378 4.57202 119.658V119.668Z" fill="white"/>
<path d="M83.452 128.948C83.452 129.248 83.352 129.498 83.152 129.698C82.962 129.888 82.392 129.978 81.442 129.978C80.392 129.978 79.612 129.978 79.102 129.958C77.522 129.958 76.342 129.958 75.562 129.938C73.842 129.908 72.332 129.808 71.042 129.638C69.752 129.468 68.752 129.238 68.062 128.958C66.762 128.428 65.712 127.488 64.902 126.148C64.322 128.708 63.632 129.988 62.842 129.988C62.292 129.988 62.022 129.678 62.022 129.048C62.022 128.778 62.122 128.458 62.322 128.068C62.732 127.268 63.072 126.238 63.342 124.958C63.612 123.678 63.772 122.448 63.802 121.248C63.832 120.498 64.142 120.128 64.712 120.128C65.242 120.128 65.512 120.508 65.512 121.248C65.512 121.698 65.432 122.698 65.282 124.228C65.562 124.748 65.842 125.158 66.122 125.478C66.402 125.798 66.802 126.128 67.322 126.478V118.528H63.342C62.622 118.528 62.262 118.238 62.262 117.658C62.262 117.078 62.622 116.788 63.342 116.788H67.282V114.188H64.122C63.782 114.188 63.512 114.118 63.322 113.968C63.132 113.818 63.042 113.598 63.042 113.298C63.042 112.718 63.402 112.428 64.122 112.428H67.282V110.318C67.282 109.618 67.602 109.268 68.242 109.268C68.882 109.268 69.152 109.618 69.152 110.318V112.428H71.562C71.902 112.428 72.172 112.498 72.362 112.648C72.552 112.798 72.642 113.018 72.642 113.318C72.642 113.898 72.282 114.188 71.562 114.188H69.152V116.788H72.102C72.822 116.788 73.182 117.078 73.182 117.658C73.182 117.958 73.092 118.178 72.922 118.318C72.752 118.458 72.472 118.528 72.102 118.528H69.192V121.508H71.632C71.972 121.508 72.242 121.578 72.432 121.728C72.622 121.878 72.712 122.098 72.712 122.398C72.712 122.978 72.352 123.268 71.632 123.268H69.192V127.488C70.532 127.868 73.202 128.068 77.182 128.098C78.072 128.098 79.072 128.078 80.182 128.028C80.562 128.028 81.272 128.008 82.342 127.978C83.092 127.948 83.462 128.278 83.462 128.958L83.452 128.948ZM73.822 124.398V112.608C73.822 112.018 73.982 111.558 74.292 111.248C74.602 110.938 75.062 110.778 75.652 110.778H80.222C80.972 110.778 81.512 110.938 81.852 111.268C82.192 111.598 82.322 112.118 82.262 112.838V116.308C82.262 117.038 82.102 117.578 81.782 117.918C81.462 118.258 80.942 118.398 80.222 118.348H75.702V123.408C75.702 123.968 75.832 124.318 76.102 124.438C76.262 124.498 76.492 124.548 76.812 124.578C77.132 124.608 77.352 124.628 77.482 124.648C78.012 124.678 78.522 124.698 79.002 124.698C79.482 124.698 80.012 124.678 80.572 124.648C80.792 124.618 80.952 124.448 81.052 124.158C81.152 123.868 81.202 123.388 81.202 122.728C81.202 122.388 81.282 122.128 81.432 121.958C81.582 121.788 81.812 121.698 82.092 121.698C82.432 121.698 82.692 121.788 82.862 121.958C83.032 122.128 83.122 122.408 83.122 122.778C83.122 124.228 82.912 125.198 82.492 125.688C82.262 125.958 81.922 126.138 81.472 126.238C81.022 126.338 80.402 126.388 79.582 126.388C77.962 126.388 76.782 126.348 76.052 126.268C75.322 126.188 74.832 126.068 74.562 125.918C74.082 125.638 73.832 125.128 73.812 124.398H73.822ZM75.702 116.518H79.522C79.802 116.518 80.022 116.438 80.162 116.288C80.302 116.138 80.382 115.908 80.382 115.628V113.498C80.382 112.938 80.092 112.638 79.512 112.608H76.602C75.992 112.608 75.692 112.908 75.692 113.518V116.518H75.702Z" fill="white"/>
<path d="M126.582 111.788C126.922 112.118 127.062 112.628 127.012 113.338V123.818C127.012 124.538 126.852 125.068 126.532 125.398C126.212 125.728 125.702 125.898 124.992 125.878H122.672C121.952 125.878 121.422 125.708 121.092 125.378C120.762 125.048 120.602 124.518 120.632 123.818V113.338C120.632 112.618 120.792 112.088 121.122 111.758C121.452 111.428 121.962 111.268 122.672 111.298H124.992C125.712 111.298 126.242 111.458 126.572 111.788H126.582ZM125.232 113.808C125.232 113.338 124.982 113.088 124.482 113.058H123.212C122.982 113.058 122.802 113.128 122.672 113.258C122.542 113.388 122.472 113.578 122.462 113.808V123.328C122.462 123.558 122.532 123.738 122.662 123.868C122.792 123.998 122.982 124.068 123.212 124.078H124.482C124.952 124.078 125.202 123.828 125.232 123.328V113.808ZM129.192 117.238C128.772 117.788 128.422 118.088 128.162 118.118C127.882 118.138 127.662 118.068 127.502 117.918C127.342 117.768 127.272 117.578 127.272 117.348C127.272 117.018 127.392 116.688 127.652 116.338C128.652 114.958 129.562 113.098 130.392 110.738C130.752 109.758 131.162 109.258 131.612 109.258C132.232 109.258 132.552 109.538 132.552 110.098C132.552 110.398 132.232 111.288 131.592 112.768H139.862C140.632 112.768 141.012 113.078 141.012 113.708C141.012 114.338 140.632 114.618 139.862 114.618H130.742C130.132 115.808 129.622 116.678 129.192 117.228V117.238ZM141.102 125.548C141.102 127.248 140.762 128.418 140.072 129.038C139.492 129.568 137.542 129.838 134.212 129.838C132.052 129.838 130.512 129.618 129.572 129.178C128.622 128.738 128.142 128.018 128.142 126.998C128.142 125.188 130.192 122.808 134.302 119.878C134.532 119.718 134.652 119.598 134.652 119.498C134.652 119.378 134.572 119.308 134.422 119.308H130.442C129.742 119.308 129.392 119.018 129.392 118.438C129.392 117.858 129.742 117.568 130.442 117.568H136.602C137.682 117.568 138.222 117.908 138.222 118.578C138.222 118.908 137.822 119.328 137.022 119.848C136.002 120.508 134.562 121.628 132.682 123.228C130.932 124.708 130.062 125.848 130.062 126.648C130.062 127.318 130.592 127.748 131.652 127.938C132.212 128.028 133.272 128.078 134.812 128.078C136.892 128.078 138.142 127.888 138.562 127.518C138.702 127.398 138.822 127.148 138.922 126.778C139.022 126.408 139.082 125.958 139.102 125.408C139.132 124.798 139.482 124.498 140.132 124.498C140.782 124.498 141.092 124.848 141.092 125.548H141.102Z" fill="white"/>
<path d="M178.022 116.568C177.462 116.568 177.182 116.268 177.182 115.678C177.182 115.338 177.372 114.998 177.742 114.668C179.242 113.288 180.472 111.678 181.442 109.818C181.742 109.268 182.082 108.998 182.472 108.998C182.772 108.998 183.012 109.098 183.182 109.288C183.352 109.478 183.412 109.678 183.332 109.888L183.142 110.338C184.192 111.068 185.022 111.718 185.622 112.288C186.372 112.958 186.742 113.408 186.742 113.648C186.742 114.228 186.442 114.518 185.852 114.518C185.602 114.518 185.312 114.328 184.982 113.958C184.402 113.338 183.562 112.548 182.452 111.588C181.972 112.418 181.372 113.258 180.672 114.118L184.192 114.098C184.782 114.098 185.082 114.348 185.082 114.848C185.082 115.348 184.782 115.598 184.192 115.598H180.962C180.382 115.598 180.082 115.348 180.052 114.848L179.772 115.178C178.912 116.118 178.322 116.588 178.012 116.588L178.022 116.568ZM185.172 128.408C185.172 128.888 184.902 129.138 184.372 129.138H180.462V129.728C180.462 130.348 180.182 130.668 179.622 130.668C179.062 130.668 178.782 130.358 178.782 129.728V118.338C178.782 117.138 179.372 116.538 180.562 116.538H184.082C185.272 116.538 185.862 117.138 185.862 118.338V121.858C185.862 123.048 185.272 123.638 184.082 123.638H180.472V124.978H184.502C185.032 124.978 185.302 125.218 185.302 125.708C185.302 126.198 185.032 126.458 184.502 126.458H180.472V127.678H184.382C184.912 127.678 185.182 127.928 185.182 128.428L185.172 128.408ZM180.462 119.338H184.162V118.538C184.162 118.148 183.962 117.948 183.552 117.928H181.042C180.652 117.928 180.452 118.128 180.452 118.538V119.338H180.462ZM180.462 122.198H183.552C183.962 122.198 184.162 121.998 184.162 121.588V120.748H180.462V122.198V122.198ZM198.582 129.158C198.582 129.858 198.262 130.208 197.622 130.208C197.212 130.208 196.582 129.868 195.722 129.198C194.892 128.558 194.242 127.948 193.772 127.368C191.912 129.318 190.502 130.298 189.552 130.298C188.972 130.298 188.682 129.988 188.682 129.358C188.682 128.998 188.912 128.688 189.382 128.418C190.722 127.688 191.802 126.858 192.612 125.938L192.632 125.868C191.992 124.888 191.472 123.668 191.062 122.238C190.652 120.828 190.452 119.858 190.452 119.308C190.452 118.728 190.732 118.438 191.292 118.438C191.772 118.438 192.072 118.808 192.182 119.538C192.542 121.658 193.042 123.258 193.682 124.318H193.822C194.372 123.378 194.842 122.268 195.252 120.968C195.672 119.658 195.882 118.718 195.882 118.158C195.882 117.738 195.622 117.528 195.112 117.528H189.492C189.442 120.218 189.292 122.398 189.022 124.068C188.772 125.658 188.342 127.058 187.732 128.268C187.142 129.468 186.592 130.068 186.092 130.068C185.502 130.068 185.202 129.748 185.202 129.108C185.202 128.938 185.322 128.668 185.582 128.308L186.052 127.628C186.672 126.538 187.122 125.228 187.392 123.718C187.692 122.018 187.842 119.268 187.842 115.488V112.678C187.842 111.128 188.562 110.358 190.002 110.358H197.482C198.212 110.358 198.582 110.658 198.582 111.248C198.582 111.838 198.212 112.138 197.482 112.138H190.402C190.092 112.138 189.862 112.218 189.722 112.368C189.582 112.518 189.512 112.778 189.512 113.138V115.808H196.032C197.282 115.808 197.912 116.258 197.912 117.168C197.912 118.008 197.642 119.288 197.112 120.988C196.552 122.828 195.812 124.438 194.912 125.818L194.932 125.908C195.772 126.798 196.802 127.568 198.002 128.208C198.392 128.428 198.592 128.738 198.592 129.148L198.582 129.158Z" fill="white"/>
<path d="M236.162 125.188C235.822 124.848 235.672 124.318 235.712 123.578V113.378C235.712 112.628 235.882 112.088 236.212 111.748C236.542 111.408 237.082 111.258 237.822 111.288H239.812C240.582 111.288 241.132 111.448 241.472 111.778C241.812 112.108 241.972 112.638 241.942 113.368V123.568C241.942 124.318 241.772 124.858 241.442 125.198C241.112 125.538 240.562 125.698 239.812 125.678H237.822C237.052 125.678 236.502 125.508 236.162 125.178V125.188ZM240.122 123.158V113.828C240.122 113.378 239.882 113.128 239.392 113.098H238.272C237.822 113.098 237.572 113.338 237.542 113.828V123.158C237.542 123.608 237.782 123.858 238.272 123.888H239.392C239.842 123.888 240.092 123.648 240.122 123.158ZM244.412 129.608C243.852 129.328 243.572 128.668 243.572 127.638V112.618C243.572 111.898 243.752 111.348 244.112 110.978C244.452 110.638 244.992 110.458 245.732 110.458H253.072C253.872 110.458 254.412 110.628 254.712 110.978C255.052 111.368 255.232 111.918 255.232 112.618V118.898C255.292 119.678 255.142 120.248 254.782 120.608C254.422 120.968 253.852 121.128 253.072 121.078H245.412V127.198C245.412 127.648 245.682 127.938 246.212 128.068C246.402 128.118 246.882 128.138 247.652 128.148C248.422 128.158 249.342 128.158 250.402 128.158C251.842 128.158 252.812 128.078 253.332 127.928C253.812 127.768 254.082 127.218 254.132 126.268C254.182 125.348 254.532 124.888 255.182 124.888C255.882 124.888 256.232 125.238 256.232 125.938C256.232 126.998 256.102 127.848 255.832 128.468C255.712 128.778 255.532 129.048 255.302 129.268C255.072 129.488 254.812 129.648 254.512 129.738C253.852 129.938 252.042 130.038 249.072 130.038C246.522 130.038 244.972 129.898 244.412 129.618V129.608ZM248.392 112.218H246.352C245.712 112.218 245.402 112.518 245.412 113.128V119.318H248.392V112.218ZM253.362 118.378V113.128C253.362 112.508 253.062 112.198 252.452 112.218H250.222V119.318H252.452C253.072 119.318 253.382 119.008 253.362 118.378Z" fill="white"/>
<path d="M302.012 129.038C301.712 128.708 301.562 128.338 301.562 127.938C301.562 127.538 301.722 127.158 302.032 126.818C302.342 126.518 302.732 126.368 303.182 126.368C303.572 126.368 303.932 126.518 304.262 126.818C304.562 127.128 304.712 127.508 304.712 127.938C304.712 128.418 304.552 128.798 304.242 129.058C303.932 129.368 303.562 129.528 303.142 129.528C302.692 129.528 302.312 129.368 302.022 129.038H302.012ZM302.202 123.718L301.712 111.718C301.712 110.798 302.192 110.338 303.142 110.338C304.092 110.338 304.552 110.808 304.552 111.748V112.198L304.032 123.728C304.012 124.388 303.722 124.708 303.142 124.708C302.532 124.708 302.222 124.378 302.202 123.728V123.718Z" fill="white"/>
</svg>
