<svg width="310" height="131" viewBox="0 0 310 131" fill="none" xmlns="http://www.w3.org/2000/svg">
<path d="M29.0691 11.2724C29.1491 9.99243 29.6291 9.09243 30.5091 8.57243C31.3891 8.05243 32.3491 7.87243 33.3891 8.03243C36.1891 8.43243 38.1491 9.29243 39.2691 10.6124C40.3891 11.9324 40.8691 13.7524 40.7091 16.0724C40.4691 20.8724 40.2091 25.9724 39.9291 31.3724C39.6491 36.7724 39.2291 41.5924 38.6691 45.8324C38.4291 47.9124 37.4891 49.5924 35.8491 50.8724C34.2091 52.1524 32.4291 52.7924 30.5091 52.7924C27.1491 52.7924 24.0691 52.8524 21.2691 52.9724C18.4691 53.0924 15.7891 53.4724 13.2291 54.1124C10.0291 54.8324 7.64909 54.4524 6.08909 52.9724C4.52909 51.4924 3.54909 49.0724 3.14909 45.7124C2.82909 42.9124 2.52909 40.2924 2.24909 37.8524C1.96909 35.4124 1.70909 33.0324 1.46909 30.7124C1.22909 28.3924 0.989091 26.0324 0.749091 23.6324C0.509091 21.2324 0.269091 18.7124 0.0290909 16.0724C-0.130909 14.4724 0.369091 13.2524 1.52909 12.4124C2.68909 11.5724 3.94909 11.1924 5.30909 11.2724C7.14909 11.3524 8.64909 11.7524 9.80909 12.4724C10.9691 13.1924 11.6291 14.2324 11.7891 15.5924C11.9491 17.1924 12.0691 18.7724 12.1491 20.3324C12.2291 21.8924 12.3091 23.3924 12.3891 24.8324C15.1891 24.1924 17.8891 23.7724 20.4891 23.5724C23.0891 23.3724 25.7891 23.3524 28.5891 23.5124C28.6691 21.3524 28.7291 19.2324 28.7691 17.1524C28.8091 15.0724 28.9091 13.1124 29.0691 11.2724ZM12.7491 33.8324C12.9091 35.5124 13.0291 37.2124 13.1091 38.9324C13.1891 40.6524 13.3091 42.4324 13.4691 44.2724C16.0291 43.4724 18.5691 43.0324 21.0891 42.9524C23.6091 42.8724 25.8691 42.8724 27.8691 42.9524L28.2291 33.2324C25.5091 32.7524 22.8291 32.5724 20.1891 32.6924C17.5491 32.8124 15.0691 33.1924 12.7491 33.8324ZM51.8691 65.9924C52.0291 64.9524 52.1491 63.8924 52.2291 62.8124C52.3091 61.7324 52.4291 60.6324 52.5891 59.5124C52.6691 58.6324 52.8291 57.8524 53.0691 57.1724C53.3091 56.4924 53.8691 56.1924 54.7491 56.2724C55.7091 56.3524 56.6691 56.4924 57.6291 56.6924C58.5891 56.8924 59.4691 57.2724 60.2691 57.8324C61.1491 58.4724 61.6691 59.3524 61.8291 60.4724C61.9891 61.5924 61.9891 62.8724 61.8291 64.3124C61.5891 67.2724 61.3291 70.1124 61.0491 72.8324C60.7691 75.5524 60.4691 78.3924 60.1491 81.3524C59.7491 85.5124 57.7091 87.5524 54.0291 87.4724H50.6691C49.3891 87.4724 48.0691 87.5124 46.7091 87.5924C45.3491 87.6724 43.9891 87.7724 42.6291 87.8924C41.2691 88.0124 40.0291 88.1524 38.9091 88.3124C35.7891 88.7924 33.9491 86.9524 33.3891 82.7924C33.0691 79.6724 32.7691 76.5924 32.4891 73.5524C32.2091 70.5124 31.9891 67.4324 31.8291 64.3124C31.8291 63.8324 31.8091 63.2324 31.7691 62.5124C31.7291 61.7924 31.7091 61.1924 31.7091 60.7124C31.7091 59.7524 31.8091 58.7924 32.0091 57.8324C32.2091 56.8724 32.9891 56.4724 34.3491 56.6324C35.5491 56.7924 36.6491 56.9924 37.6491 57.2324C38.6491 57.4724 39.4691 57.8724 40.1091 58.4324C40.7491 58.9124 41.0691 59.5324 41.0691 60.2924V64.7324C41.0691 65.5724 41.1091 66.2724 41.1891 66.8324C42.7891 66.6724 44.5691 66.5324 46.5291 66.4124C48.4891 66.2924 50.2691 66.1524 51.8691 65.9924ZM51.7491 71.9924C50.3091 72.0724 48.6091 72.1724 46.6491 72.2924C44.6891 72.4124 42.9891 72.5524 41.5491 72.7124L41.7891 80.6324C43.2291 80.3124 44.8491 80.1124 46.6491 80.0324C48.4491 79.9524 50.0291 79.9524 51.3891 80.0324L51.7491 71.9924ZM51.1491 4.43243C50.7491 3.23243 50.7491 2.27243 51.1491 1.55243C51.6291 0.91243 52.5091 0.63243 53.7891 0.71243C55.9491 0.95243 57.8291 1.77243 59.4291 3.17243C61.0291 4.57243 62.3491 6.31243 63.3891 8.39243C64.2691 10.3124 65.0091 12.3524 65.6091 14.5124C66.2091 16.6724 66.7091 18.7124 67.1091 20.6324C69.1891 19.8324 71.4291 19.4524 73.8291 19.4924C76.2291 19.5324 78.5091 19.8724 80.6691 20.5124C82.1091 20.9924 83.1291 21.7124 83.7291 22.6724C84.3291 23.6324 84.5491 24.5524 84.3891 25.4324C84.2291 26.3124 83.7291 26.9524 82.8891 27.3524C82.0491 27.7524 81.0691 27.7924 79.9491 27.4724C77.8691 26.9924 75.7891 26.7724 73.7091 26.8124C71.6291 26.8524 69.7091 27.3124 67.9491 28.1924C68.1091 31.6324 68.0691 35.1324 67.8291 38.6924C67.5891 42.2524 67.1091 45.3524 66.3891 47.9924C65.1891 52.5524 62.3491 54.7124 57.8691 54.4724C55.7891 54.3124 54.0891 53.4724 52.7691 51.9524C51.4491 50.4324 50.9891 48.5124 51.3891 46.1924C51.7091 44.5124 51.9891 42.6924 52.2291 40.7324C52.4691 38.7724 52.6891 36.8324 52.8891 34.9124C53.0891 32.9924 53.2691 31.1524 53.4291 29.3924C53.5891 27.6324 53.6691 26.0724 53.6691 24.7124C53.7491 21.0324 53.5691 17.5724 53.1291 14.3324C52.6891 11.0924 52.0291 7.79243 51.1491 4.43243Z" fill="white"/>
<path d="M128.429 50.7524C126.509 50.9924 124.929 50.9124 123.689 50.5124C122.449 50.1124 121.469 49.4324 120.749 48.4724C120.029 47.5124 119.509 46.3524 119.189 44.9924C118.869 43.6324 118.669 42.1124 118.589 40.4324C118.429 38.9924 118.289 37.2924 118.169 35.3324C118.049 33.3724 117.929 31.3124 117.809 29.1524C117.689 26.9924 117.569 24.7924 117.449 22.5524C117.329 20.3124 117.189 18.1124 117.029 15.9524C116.869 13.8724 117.149 12.2724 117.869 11.1524C118.589 10.0324 119.629 9.39243 120.989 9.23243C122.829 9.15243 124.209 9.45243 125.129 10.1324C126.049 10.8124 126.749 11.7124 127.229 12.8324C128.429 12.5924 129.789 12.3724 131.309 12.1724C132.829 11.9724 134.369 11.7724 135.929 11.5724C137.489 11.3724 139.029 11.2124 140.549 11.0924C142.069 10.9724 143.429 10.8724 144.629 10.7924C148.709 10.6324 151.809 11.2924 153.929 12.7724C156.049 14.2524 157.029 17.1124 156.869 21.3524C156.789 22.7124 156.709 24.2324 156.629 25.9124C156.549 27.5924 156.469 29.2924 156.389 31.0124C156.309 32.7324 156.209 34.4524 156.089 36.1724C155.969 37.8924 155.829 39.4324 155.669 40.7924C155.509 42.2324 155.289 43.4924 155.009 44.5724C154.729 45.6524 154.269 46.5324 153.629 47.2124C152.989 47.8924 152.129 48.4124 151.049 48.7724C149.969 49.1324 148.549 49.3124 146.789 49.3124C143.349 49.3124 140.189 49.4524 137.309 49.7324C134.429 50.0124 131.469 50.3524 128.429 50.7524ZM144.869 40.1924C144.869 38.9124 144.889 37.4924 144.929 35.9324C144.969 34.3724 145.009 32.7724 145.049 31.1324C145.089 29.4924 145.129 27.8924 145.169 26.3324C145.209 24.7724 145.229 23.3924 145.229 22.1924C145.229 20.6724 144.549 19.9124 143.189 19.9124C140.629 19.9924 138.049 20.1724 135.449 20.4524C132.849 20.7324 130.469 21.0324 128.309 21.3524L129.869 41.5124C132.429 40.9524 134.989 40.5924 137.549 40.4324C140.109 40.2724 142.549 40.1924 144.869 40.1924ZM170.069 64.4324C168.469 64.3524 166.749 64.5724 164.909 65.0924C163.069 65.6124 161.149 66.5124 159.149 67.7924C158.269 68.3524 157.229 68.5524 156.029 68.3924C154.829 68.2324 153.949 67.5924 153.389 66.4724C152.909 65.5124 152.969 64.4724 153.569 63.3524C154.169 62.2324 155.029 61.2324 156.149 60.3524C158.149 58.9924 160.189 57.8924 162.269 57.0524C164.349 56.2124 167.069 55.7124 170.429 55.5524C172.509 55.4724 174.549 55.6924 176.549 56.2124C178.549 56.7324 180.349 57.5524 181.949 58.6724C183.549 59.7924 184.869 61.2324 185.909 62.9924C186.949 64.7524 187.589 66.8324 187.829 69.2324C187.989 71.3924 187.869 73.7324 187.469 76.2524C187.069 78.7724 186.309 81.0724 185.189 83.1524C182.709 87.7924 179.709 89.6724 176.189 88.7924C174.349 88.3124 173.329 87.1724 173.129 85.3724C172.929 83.5724 173.189 81.6724 173.909 79.6724C174.549 77.9124 175.129 76.2724 175.649 74.7524C176.169 73.2324 176.349 71.7524 176.189 70.3124C176.029 68.4724 175.309 67.0524 174.029 66.0524C172.749 65.0524 171.429 64.5124 170.069 64.4324ZM190.589 44.7524C190.189 47.9524 188.969 50.2724 186.929 51.7124C184.889 53.1524 182.829 53.7924 180.749 53.6324C179.629 53.5524 178.569 53.2724 177.569 52.7924C176.569 52.3124 175.729 51.6524 175.049 50.8124C174.369 49.9724 173.869 48.9524 173.549 47.7524C173.229 46.5524 173.229 45.2324 173.549 43.7924C173.949 41.6324 174.289 39.5724 174.569 37.6124C174.849 35.6524 175.109 33.7524 175.349 31.9124C173.269 31.0324 171.269 30.6924 169.349 30.8924C167.429 31.0924 165.669 31.5524 164.069 32.2724C162.949 32.7524 161.869 32.9324 160.829 32.8124C159.789 32.6924 158.989 32.1524 158.429 31.1924C157.789 30.1524 157.789 29.0524 158.429 27.8924C159.069 26.7324 159.949 25.7524 161.069 24.9524C162.669 23.8324 164.889 23.0924 167.729 22.7324C170.569 22.3724 173.269 22.4724 175.829 23.0324C175.909 19.9924 175.829 16.9124 175.589 13.7924C175.349 10.6724 174.949 7.23243 174.389 3.47243C174.149 1.23243 175.109 0.192426 177.269 0.352426C179.989 0.592426 182.429 2.27243 184.589 5.39243C186.109 7.47243 187.329 10.3324 188.249 13.9724C189.169 17.6124 189.949 21.7124 190.589 26.2724C190.669 27.4724 190.749 28.8724 190.829 30.4724C190.909 32.0724 190.949 33.7124 190.949 35.3924C190.949 37.0724 190.929 38.7324 190.889 40.3724C190.849 42.0124 190.749 43.4724 190.589 44.7524Z" fill="white"/>
<path d="M205.709 30.8325C204.349 30.9125 203.009 30.6725 201.689 30.1125C200.369 29.5525 199.669 28.4725 199.589 26.8725C199.509 25.5925 200.049 24.5725 201.209 23.8125C202.369 23.0525 203.589 22.5125 204.869 22.1925C213.429 19.9525 222.149 19.3925 231.029 20.5125C232.149 20.6725 233.289 20.8725 234.449 21.1125C235.609 21.3525 236.749 21.6725 237.869 22.0725C239.389 22.5525 240.549 23.4525 241.349 24.7725C242.149 26.0925 242.469 27.4725 242.309 28.9125C242.069 30.2725 241.489 31.2725 240.569 31.9125C239.649 32.5525 238.629 32.8325 237.509 32.7525C235.429 32.5925 233.409 32.3925 231.449 32.1525C229.489 31.9125 227.549 31.7125 225.629 31.5525C225.869 36.6725 225.149 41.9925 223.469 47.5125C227.229 48.8725 230.649 50.4925 233.729 52.3725C236.809 54.2525 239.149 56.9525 240.749 60.4725C241.309 61.8325 241.429 63.2725 241.109 64.7925C240.789 66.3125 240.069 67.3925 238.949 68.0325C237.429 68.9125 235.929 69.1525 234.449 68.7525C232.969 68.3525 231.909 67.4725 231.269 66.1125C229.989 63.3925 228.569 61.0125 227.009 58.9725C225.449 56.9325 223.509 55.2325 221.189 53.8725C220.069 56.0325 218.769 58.1125 217.289 60.1125C215.809 62.1125 214.309 63.9125 212.789 65.5125C212.069 66.3125 211.229 67.0325 210.269 67.6725C209.309 68.3125 208.349 68.7925 207.389 69.1125C206.429 69.4325 205.469 69.5325 204.509 69.4125C203.549 69.2925 202.709 68.8725 201.989 68.1525C200.389 66.7125 199.849 65.1325 200.369 63.4125C200.889 61.6925 201.909 60.0725 203.429 58.5525C207.029 54.9525 209.949 50.7525 212.189 45.9525C214.429 41.1525 215.749 36.1525 216.149 30.9525C214.229 30.8725 212.349 30.8325 210.509 30.8325H205.709ZM287.789 35.8725C288.349 36.5125 288.609 37.2725 288.569 38.1525C288.529 39.0325 288.309 39.7525 287.909 40.3125C286.789 41.5125 285.349 41.8325 283.589 41.2725C282.469 41.0325 281.349 40.8125 280.229 40.6125C279.109 40.4125 277.869 40.3125 276.509 40.3125C275.229 40.2325 273.889 40.3325 272.489 40.6125C271.089 40.8925 269.869 41.3925 268.829 42.1125C268.909 44.1125 268.949 46.2525 268.949 48.5325C268.949 50.8125 268.909 53.1325 268.829 55.4925C268.749 57.8525 268.589 60.1525 268.349 62.3925C268.109 64.6325 267.789 66.7125 267.389 68.6325C266.829 71.4325 265.669 73.6125 263.909 75.1725C262.149 76.7325 259.749 77.3125 256.709 76.9125C254.469 76.6725 252.709 75.5725 251.429 73.6125C250.149 71.6525 249.789 68.8725 250.349 65.2725C250.589 63.8325 250.869 61.9525 251.189 59.6325C251.509 57.3125 251.849 54.8725 252.209 52.3125C252.569 49.7525 252.889 47.2325 253.169 44.7525C253.449 42.2725 253.629 40.1925 253.709 38.5125C253.869 34.3525 253.969 29.9725 254.009 25.3725C254.049 20.7725 253.629 16.4325 252.749 12.3525C252.509 11.1525 252.349 10.1325 252.269 9.29248C252.189 8.45248 252.469 7.87248 253.109 7.55248C253.669 7.15248 254.269 7.01248 254.909 7.13248C255.549 7.25248 256.109 7.43248 256.589 7.67248C258.669 8.79248 260.289 10.1525 261.449 11.7525C262.609 13.3525 263.589 15.1525 264.389 17.1525C264.709 18.0325 265.049 19.1325 265.409 20.4525C265.769 21.7725 266.109 23.1725 266.429 24.6525C266.749 26.1325 267.049 27.5925 267.329 29.0325C267.609 30.4725 267.869 31.7925 268.109 32.9925C269.469 32.5125 270.829 32.1925 272.189 32.0325C273.549 31.8725 274.909 31.8325 276.269 31.9125C278.189 31.9925 280.249 32.2925 282.449 32.8125C284.649 33.3325 286.429 34.3525 287.789 35.8725Z" fill="white"/>
<path d="M299.429 78.2324C297.669 78.0724 296.309 77.3724 295.349 76.1324C294.389 74.8924 293.989 73.3924 294.149 71.6324C294.309 69.7924 295.049 68.3124 296.369 67.1924C297.689 66.0724 299.269 65.5524 301.109 65.6325C302.709 65.7125 304.109 66.3524 305.309 67.5524C306.509 68.7524 307.109 70.1924 307.109 71.8724C307.109 73.8724 306.369 75.4924 304.889 76.7324C303.409 77.9724 301.589 78.4724 299.429 78.2324ZM305.789 52.0724C305.309 53.9124 304.489 55.2124 303.329 55.9724C302.169 56.7324 301.029 57.0324 299.909 56.8724C298.789 56.7124 297.809 56.1524 296.969 55.1924C296.129 54.2324 295.749 52.9524 295.829 51.3524C296.069 45.0324 296.189 39.1524 296.189 33.7124C296.189 28.2724 295.909 22.7924 295.349 17.2724C294.869 12.3924 295.049 9.15245 295.889 7.55245C296.729 5.95245 298.549 5.35245 301.349 5.75245C302.789 5.91245 304.009 6.43245 305.009 7.31245C306.009 8.19245 306.829 9.33245 307.469 10.7324C308.109 12.1324 308.569 13.7324 308.849 15.5324C309.129 17.3324 309.269 19.2324 309.269 21.2324C309.349 26.9124 309.109 32.1324 308.549 36.8924C307.989 41.6525 307.069 46.7124 305.789 52.0724Z" fill="white"/>
<path d="M4.57202 119.673C4.57202 118.953 5.01202 118.593 5.88202 118.593H24.422C25.302 118.593 25.732 118.963 25.732 119.693C25.732 120.423 25.292 120.743 24.422 120.743H5.88202C5.00202 120.743 4.57202 120.383 4.57202 119.663V119.673Z" fill="white"/>
<path d="M83.452 128.953C83.452 129.253 83.352 129.503 83.152 129.703C82.962 129.893 82.392 129.983 81.442 129.983C80.392 129.983 79.612 129.983 79.102 129.963C77.522 129.963 76.342 129.963 75.562 129.943C73.842 129.913 72.332 129.813 71.042 129.643C69.752 129.473 68.752 129.243 68.062 128.963C66.762 128.433 65.712 127.493 64.902 126.153C64.322 128.713 63.632 129.993 62.842 129.993C62.292 129.993 62.022 129.683 62.022 129.053C62.022 128.783 62.122 128.463 62.322 128.073C62.732 127.273 63.072 126.243 63.342 124.963C63.612 123.683 63.772 122.453 63.802 121.253C63.832 120.503 64.142 120.133 64.712 120.133C65.242 120.133 65.512 120.513 65.512 121.253C65.512 121.703 65.432 122.703 65.282 124.233C65.562 124.753 65.842 125.163 66.122 125.483C66.402 125.803 66.802 126.133 67.322 126.483V118.533H63.342C62.622 118.533 62.262 118.243 62.262 117.663C62.262 117.083 62.622 116.793 63.342 116.793H67.282V114.193H64.122C63.782 114.193 63.512 114.123 63.322 113.973C63.132 113.823 63.042 113.603 63.042 113.303C63.042 112.723 63.402 112.433 64.122 112.433H67.282V110.323C67.282 109.623 67.602 109.273 68.242 109.273C68.882 109.273 69.152 109.623 69.152 110.323V112.433H71.562C71.902 112.433 72.172 112.503 72.362 112.653C72.552 112.803 72.642 113.023 72.642 113.323C72.642 113.903 72.282 114.193 71.562 114.193H69.152V116.793H72.102C72.822 116.793 73.182 117.083 73.182 117.663C73.182 117.963 73.092 118.183 72.922 118.323C72.752 118.463 72.472 118.533 72.102 118.533H69.192V121.513H71.632C71.972 121.513 72.242 121.583 72.432 121.733C72.622 121.883 72.712 122.103 72.712 122.403C72.712 122.983 72.352 123.273 71.632 123.273H69.192V127.493C70.532 127.873 73.202 128.073 77.182 128.103C78.072 128.103 79.072 128.083 80.182 128.033C80.562 128.033 81.272 128.013 82.342 127.983C83.092 127.953 83.462 128.283 83.462 128.963L83.452 128.953ZM73.822 124.403V112.613C73.822 112.023 73.982 111.563 74.292 111.253C74.602 110.943 75.062 110.783 75.652 110.783H80.222C80.972 110.783 81.512 110.943 81.852 111.273C82.192 111.603 82.322 112.123 82.262 112.843V116.313C82.262 117.043 82.102 117.583 81.782 117.923C81.462 118.263 80.942 118.403 80.222 118.353H75.702V123.413C75.702 123.973 75.832 124.323 76.102 124.443C76.262 124.503 76.492 124.553 76.812 124.583C77.132 124.613 77.352 124.633 77.482 124.653C78.012 124.683 78.522 124.703 79.002 124.703C79.482 124.703 80.012 124.683 80.572 124.653C80.792 124.623 80.952 124.453 81.052 124.163C81.152 123.873 81.202 123.393 81.202 122.733C81.202 122.393 81.282 122.133 81.432 121.963C81.582 121.793 81.812 121.703 82.092 121.703C82.432 121.703 82.692 121.793 82.862 121.963C83.032 122.133 83.122 122.413 83.122 122.783C83.122 124.233 82.912 125.203 82.492 125.693C82.262 125.963 81.922 126.143 81.472 126.243C81.022 126.343 80.402 126.393 79.582 126.393C77.962 126.393 76.782 126.353 76.052 126.273C75.322 126.193 74.832 126.073 74.562 125.923C74.082 125.643 73.832 125.133 73.812 124.403H73.822ZM75.702 116.523H79.522C79.802 116.523 80.022 116.443 80.162 116.293C80.302 116.143 80.382 115.913 80.382 115.633V113.503C80.382 112.943 80.092 112.643 79.512 112.613H76.602C75.992 112.613 75.692 112.913 75.692 113.523V116.523H75.702Z" fill="white"/>
<path d="M126.582 111.793C126.922 112.123 127.062 112.633 127.012 113.343V123.823C127.012 124.543 126.852 125.073 126.532 125.403C126.212 125.733 125.702 125.903 124.992 125.883H122.672C121.952 125.883 121.422 125.713 121.092 125.383C120.762 125.053 120.602 124.523 120.632 123.823V113.343C120.632 112.623 120.792 112.093 121.122 111.763C121.452 111.433 121.962 111.273 122.672 111.303H124.992C125.712 111.303 126.242 111.463 126.572 111.793H126.582ZM125.232 113.813C125.232 113.343 124.982 113.093 124.482 113.063H123.212C122.982 113.063 122.802 113.133 122.672 113.263C122.542 113.393 122.472 113.583 122.462 113.813V123.333C122.462 123.563 122.532 123.743 122.662 123.873C122.792 124.003 122.982 124.073 123.212 124.083H124.482C124.952 124.083 125.202 123.833 125.232 123.333V113.813ZM129.192 117.243C128.772 117.793 128.422 118.093 128.162 118.123C127.882 118.143 127.662 118.073 127.502 117.923C127.342 117.773 127.272 117.583 127.272 117.353C127.272 117.023 127.392 116.693 127.652 116.343C128.652 114.963 129.562 113.103 130.392 110.743C130.752 109.763 131.162 109.263 131.612 109.263C132.232 109.263 132.552 109.543 132.552 110.103C132.552 110.403 132.232 111.293 131.592 112.773H139.862C140.632 112.773 141.012 113.083 141.012 113.713C141.012 114.343 140.632 114.623 139.862 114.623H130.742C130.132 115.813 129.622 116.683 129.192 117.233V117.243ZM141.102 125.553C141.102 127.253 140.762 128.423 140.072 129.043C139.492 129.573 137.542 129.843 134.212 129.843C132.052 129.843 130.512 129.623 129.572 129.183C128.622 128.743 128.142 128.023 128.142 127.003C128.142 125.193 130.192 122.813 134.302 119.883C134.532 119.723 134.652 119.603 134.652 119.503C134.652 119.383 134.572 119.313 134.422 119.313H130.442C129.742 119.313 129.392 119.023 129.392 118.443C129.392 117.863 129.742 117.573 130.442 117.573H136.602C137.682 117.573 138.222 117.913 138.222 118.583C138.222 118.913 137.822 119.333 137.022 119.853C136.002 120.513 134.562 121.633 132.682 123.233C130.932 124.713 130.062 125.853 130.062 126.653C130.062 127.323 130.592 127.753 131.652 127.943C132.212 128.033 133.272 128.083 134.812 128.083C136.892 128.083 138.142 127.893 138.562 127.523C138.702 127.403 138.822 127.153 138.922 126.783C139.022 126.413 139.082 125.963 139.102 125.413C139.132 124.803 139.482 124.503 140.132 124.503C140.782 124.503 141.092 124.853 141.092 125.553H141.102Z" fill="white"/>
<path d="M178.022 116.573C177.462 116.573 177.182 116.273 177.182 115.683C177.182 115.343 177.372 115.003 177.742 114.673C179.242 113.293 180.472 111.683 181.442 109.823C181.742 109.273 182.082 109.003 182.472 109.003C182.772 109.003 183.012 109.103 183.182 109.293C183.352 109.483 183.412 109.683 183.332 109.893L183.142 110.343C184.192 111.073 185.022 111.723 185.622 112.293C186.372 112.963 186.742 113.413 186.742 113.653C186.742 114.233 186.442 114.523 185.852 114.523C185.602 114.523 185.312 114.333 184.982 113.963C184.402 113.343 183.562 112.553 182.452 111.593C181.972 112.423 181.372 113.263 180.672 114.123L184.192 114.103C184.782 114.103 185.082 114.353 185.082 114.853C185.082 115.353 184.782 115.603 184.192 115.603H180.962C180.382 115.603 180.082 115.353 180.052 114.853L179.772 115.183C178.912 116.123 178.322 116.593 178.012 116.593L178.022 116.573ZM185.172 128.413C185.172 128.893 184.902 129.143 184.372 129.143H180.462V129.733C180.462 130.353 180.182 130.673 179.622 130.673C179.062 130.673 178.782 130.363 178.782 129.733V118.343C178.782 117.143 179.372 116.543 180.562 116.543H184.082C185.272 116.543 185.862 117.143 185.862 118.343V121.863C185.862 123.053 185.272 123.643 184.082 123.643H180.472V124.983H184.502C185.032 124.983 185.302 125.223 185.302 125.713C185.302 126.203 185.032 126.463 184.502 126.463H180.472V127.683H184.382C184.912 127.683 185.182 127.933 185.182 128.433L185.172 128.413ZM180.462 119.343H184.162V118.543C184.162 118.153 183.962 117.953 183.552 117.933H181.042C180.652 117.933 180.452 118.133 180.452 118.543V119.343H180.462ZM180.462 122.203H183.552C183.962 122.203 184.162 122.003 184.162 121.593V120.753H180.462V122.203ZM198.582 129.163C198.582 129.863 198.262 130.213 197.622 130.213C197.212 130.213 196.582 129.873 195.722 129.203C194.892 128.563 194.242 127.953 193.772 127.373C191.912 129.323 190.502 130.303 189.552 130.303C188.972 130.303 188.682 129.993 188.682 129.363C188.682 129.003 188.912 128.693 189.382 128.423C190.722 127.693 191.802 126.863 192.612 125.943L192.632 125.873C191.992 124.893 191.472 123.673 191.062 122.243C190.652 120.833 190.452 119.863 190.452 119.313C190.452 118.733 190.732 118.443 191.292 118.443C191.772 118.443 192.072 118.813 192.182 119.543C192.542 121.663 193.042 123.263 193.682 124.323H193.822C194.372 123.383 194.842 122.273 195.252 120.973C195.672 119.663 195.882 118.723 195.882 118.163C195.882 117.743 195.622 117.533 195.112 117.533H189.492C189.442 120.223 189.292 122.403 189.022 124.073C188.772 125.663 188.342 127.063 187.732 128.273C187.142 129.473 186.592 130.073 186.092 130.073C185.502 130.073 185.202 129.753 185.202 129.113C185.202 128.943 185.322 128.673 185.582 128.313L186.052 127.633C186.672 126.543 187.122 125.233 187.392 123.723C187.692 122.023 187.842 119.273 187.842 115.493V112.683C187.842 111.133 188.562 110.363 190.002 110.363H197.482C198.212 110.363 198.582 110.663 198.582 111.253C198.582 111.843 198.212 112.143 197.482 112.143H190.402C190.092 112.143 189.862 112.223 189.722 112.373C189.582 112.523 189.512 112.783 189.512 113.143V115.813H196.032C197.282 115.813 197.912 116.263 197.912 117.173C197.912 118.013 197.642 119.293 197.112 120.993C196.552 122.833 195.812 124.443 194.912 125.823L194.932 125.913C195.772 126.803 196.802 127.573 198.002 128.213C198.392 128.433 198.592 128.743 198.592 129.153L198.582 129.163Z" fill="white"/>
<path d="M236.162 125.193C235.822 124.853 235.672 124.323 235.712 123.583V113.383C235.712 112.633 235.882 112.093 236.212 111.753C236.542 111.413 237.082 111.263 237.822 111.293H239.812C240.582 111.293 241.132 111.453 241.472 111.783C241.812 112.113 241.972 112.643 241.942 113.373V123.573C241.942 124.323 241.772 124.863 241.442 125.203C241.112 125.543 240.562 125.703 239.812 125.683H237.822C237.052 125.683 236.502 125.513 236.162 125.183V125.193ZM240.122 123.163V113.833C240.122 113.383 239.882 113.133 239.392 113.103H238.272C237.822 113.103 237.572 113.343 237.542 113.833V123.163C237.542 123.613 237.782 123.863 238.272 123.893H239.392C239.842 123.893 240.092 123.653 240.122 123.163ZM244.412 129.613C243.852 129.333 243.572 128.673 243.572 127.643V112.623C243.572 111.903 243.752 111.353 244.112 110.983C244.452 110.643 244.992 110.463 245.732 110.463H253.072C253.872 110.463 254.412 110.633 254.712 110.983C255.052 111.373 255.232 111.923 255.232 112.623V118.903C255.292 119.683 255.142 120.253 254.782 120.613C254.422 120.973 253.852 121.133 253.072 121.083H245.412V127.203C245.412 127.653 245.682 127.943 246.212 128.073C246.402 128.123 246.882 128.143 247.652 128.153C248.422 128.163 249.342 128.163 250.402 128.163C251.842 128.163 252.812 128.083 253.332 127.933C253.812 127.773 254.082 127.223 254.132 126.273C254.182 125.353 254.532 124.893 255.182 124.893C255.882 124.893 256.232 125.243 256.232 125.943C256.232 127.003 256.102 127.853 255.832 128.473C255.712 128.783 255.532 129.053 255.302 129.273C255.072 129.493 254.812 129.653 254.512 129.743C253.852 129.943 252.042 130.043 249.072 130.043C246.522 130.043 244.972 129.903 244.412 129.623V129.613ZM248.392 112.223H246.352C245.712 112.223 245.402 112.523 245.412 113.133V119.323H248.392V112.223ZM253.362 118.383V113.133C253.362 112.513 253.062 112.203 252.452 112.223H250.222V119.323H252.452C253.072 119.323 253.382 119.013 253.362 118.383Z" fill="white"/>
<path d="M302.012 129.043C301.712 128.713 301.562 128.343 301.562 127.943C301.562 127.543 301.722 127.163 302.032 126.823C302.342 126.523 302.732 126.373 303.182 126.373C303.572 126.373 303.932 126.523 304.262 126.823C304.562 127.133 304.712 127.513 304.712 127.943C304.712 128.423 304.552 128.803 304.242 129.063C303.932 129.373 303.562 129.533 303.142 129.533C302.692 129.533 302.312 129.373 302.022 129.043H302.012ZM302.202 123.723L301.712 111.723C301.712 110.803 302.192 110.343 303.142 110.343C304.092 110.343 304.552 110.813 304.552 111.753V112.203L304.032 123.733C304.012 124.393 303.722 124.713 303.142 124.713C302.532 124.713 302.222 124.383 302.202 123.733V123.723Z" fill="white"/>
</svg>
