<svg width="171" height="90" viewBox="0 0 171 90" fill="none" xmlns="http://www.w3.org/2000/svg">
<path d="M24.5809 40.4477C23.3009 42.7677 21.6409 44.9877 19.6009 47.1077C17.5609 49.2277 15.6209 50.9677 13.7809 52.3277C12.8209 53.0477 11.8009 53.5677 10.7209 53.8877C9.6409 54.2077 8.6009 54.3477 7.6009 54.3077C6.6009 54.2677 5.6409 54.0277 4.7209 53.5877C3.8009 53.1477 3.0609 52.4477 2.5009 51.4877C1.1409 49.1677 0.9209 47.0677 1.8409 45.1877C2.7609 43.3077 4.2609 41.5677 6.3409 39.9677C9.9409 37.1677 13.0809 33.8877 15.7609 30.1277C18.4409 26.3677 20.3809 22.4077 21.5809 18.2477C21.9809 16.8877 22.2809 15.5877 22.4809 14.3477C22.6809 13.1077 22.7809 11.8877 22.7809 10.6877C22.7809 9.24766 23.6209 8.64766 25.3009 8.88766C27.0609 9.04766 28.4809 9.98766 29.5609 11.7077C30.6409 13.4277 31.2209 15.3277 31.3009 17.4077C31.3809 19.8877 31.2609 22.1877 30.9409 24.3077C30.6209 26.4277 30.1409 28.4477 29.5009 30.3677C33.8209 31.0877 37.6409 32.8677 40.9609 35.7077C44.2809 38.5477 46.5409 41.9277 47.7409 45.8477C48.2209 47.2877 48.2209 48.7677 47.7409 50.2877C47.2609 51.8077 46.1009 52.8877 44.2609 53.5277C42.6609 54.0077 41.2409 53.8677 40.0009 53.1077C38.7609 52.3477 37.8609 51.2877 37.3009 49.9277C36.1009 47.1277 34.7609 44.6077 33.2809 42.3677C31.8009 40.1277 29.6209 38.2477 26.7409 36.7277L24.5809 40.4477ZM49.3009 66.6077C47.4609 66.6877 45.7409 67.0477 44.1409 67.6877C42.5409 68.3277 40.9009 69.1677 39.2209 70.2077C38.2609 70.8477 37.2209 71.0877 36.1009 70.9277C34.9809 70.7677 34.1409 70.2477 33.5809 69.3677C33.0209 68.4877 32.8409 67.4277 33.0409 66.1877C33.2409 64.9477 33.8209 63.8477 34.7809 62.8877C36.3809 61.2877 38.6409 59.9677 41.5609 58.9277C44.4809 57.8877 47.6209 57.3277 50.9809 57.2477C55.7009 57.1677 59.6809 58.2477 62.9209 60.4877C66.1609 62.7277 67.9809 66.2077 68.3809 70.9277C68.5409 73.0877 68.4209 75.4277 68.0209 77.9477C67.6209 80.4677 66.8609 82.7677 65.7409 84.8477C64.4609 87.2477 62.8409 88.6877 60.8809 89.1677C58.9209 89.6477 57.1809 89.5677 55.6609 88.9277C54.0609 88.2077 53.0409 87.0077 52.6009 85.3277C52.1609 83.6477 52.3009 81.8077 53.0209 79.8077C53.6609 78.0477 54.2009 76.3677 54.6409 74.7677C55.0809 73.1677 55.2209 71.7677 55.0609 70.5677C54.8209 69.1277 54.1809 68.0877 53.1409 67.4477C52.1009 66.8077 50.8209 66.5277 49.3009 66.6077ZM56.0209 0.12766C58.3409 -0.27234 60.4409 0.26766 62.3209 1.74766C64.2009 3.22766 65.8209 5.24766 67.1809 7.80766C68.6209 10.6077 69.8009 13.8677 70.7209 17.5877C71.6409 21.3077 72.1009 25.7277 72.1009 30.8477C72.1009 33.4077 72.0209 36.3477 71.8609 39.6677C71.7009 42.9877 71.4209 45.9277 71.0209 48.4877C70.6209 51.2077 69.6009 53.2677 67.9609 54.6677C66.3209 56.0677 64.3009 56.6477 61.9009 56.4077C60.0609 56.2477 58.5409 55.7477 57.3409 54.9077C56.1409 54.0677 55.4609 52.7277 55.3009 50.8877C55.2209 49.7677 55.3009 48.6277 55.5409 47.4677C55.7809 46.3077 55.9809 45.1677 56.1409 44.0477C56.8609 39.8077 57.3009 35.3677 57.4609 30.7277C57.6209 26.0877 57.5409 21.6477 57.2209 17.4077C56.9009 12.2877 56.1409 7.44766 54.9409 2.88766C54.7809 2.24766 54.7809 1.66766 54.9409 1.14766C55.1009 0.62766 55.4609 0.28766 56.0209 0.12766Z" fill="black"/>
<path d="M87.7009 24.9676C85.8609 25.3676 84.2809 25.2276 82.9609 24.5476C81.6409 23.8676 80.8609 22.9676 80.6209 21.8476C80.3809 20.7276 80.7209 19.4876 81.6409 18.1276C82.5609 16.7676 84.2609 15.7676 86.7409 15.1276C88.5809 14.6476 90.6609 14.2076 92.9809 13.8076C95.3009 13.4076 97.7009 13.0876 100.181 12.8476C102.661 12.6076 105.161 12.5076 107.681 12.5476C110.201 12.5876 112.581 12.7676 114.821 13.0876C116.741 13.4076 118.201 14.0676 119.201 15.0676C120.201 16.0676 120.741 17.2876 120.821 18.7276C120.901 20.2476 120.421 21.4876 119.381 22.4476C118.341 23.4076 116.701 23.8076 114.461 23.6476C111.101 23.4876 108.081 23.4676 105.401 23.5876C102.721 23.7076 99.9009 23.9676 96.9409 24.3676C96.3009 26.6876 95.8409 28.9476 95.5609 31.1476C95.2809 33.3476 95.3009 35.5276 95.6209 37.6876C96.1009 41.5276 98.2609 43.6876 102.101 44.1676C104.661 44.4876 107.301 44.2676 110.021 43.5076C112.741 42.7476 115.501 41.7276 118.301 40.4476C120.221 39.5676 121.981 39.2676 123.581 39.5476C125.181 39.8276 126.301 40.6476 126.941 42.0076C127.821 43.8476 127.801 45.6076 126.881 47.2876C125.961 48.9676 124.621 50.2476 122.861 51.1276C119.421 52.7276 116.161 53.8476 113.081 54.4876C110.001 55.1276 106.621 55.2876 102.941 54.9676C96.7809 54.4876 92.3209 52.4676 89.5609 48.9076C86.8009 45.3476 85.5009 40.9676 85.6609 35.7676C85.7409 33.6876 85.9809 31.7076 86.3809 29.8276C86.7809 27.9476 87.2209 26.3276 87.7009 24.9676ZM115.901 72.6076C115.981 70.6876 116.401 68.8476 117.161 67.0876C117.921 65.3276 118.941 63.8076 120.221 62.5276C121.501 61.2476 123.061 60.2476 124.901 59.5276C126.741 58.8076 128.781 58.4876 131.021 58.5676C133.101 58.5676 135.041 58.9676 136.841 59.7676C138.641 60.5676 140.181 61.6476 141.461 63.0076C142.741 64.3676 143.741 65.9276 144.461 67.6876C145.181 69.4476 145.541 71.3276 145.541 73.3276C145.541 75.8876 145.101 78.1076 144.221 79.9876C143.341 81.8676 142.161 83.4076 140.681 84.6076C139.201 85.8076 137.521 86.6876 135.641 87.2476C133.761 87.8076 131.821 88.0876 129.821 88.0876C127.341 88.0876 125.201 87.6276 123.401 86.7076C121.601 85.7876 120.141 84.6076 119.021 83.1676C117.901 81.7276 117.081 80.0876 116.561 78.2476C116.041 76.4076 115.821 74.5276 115.901 72.6076ZM129.701 79.6876C131.621 79.8476 133.241 79.4076 134.561 78.3676C135.881 77.3276 136.581 75.7676 136.661 73.6876C136.741 72.0076 136.241 70.5276 135.161 69.2476C134.081 67.9676 132.701 67.3276 131.021 67.3276C129.181 67.3276 127.701 67.8676 126.581 68.9476C125.461 70.0276 124.861 71.4876 124.781 73.3276C124.621 75.2476 125.061 76.7476 126.101 77.8276C127.141 78.9076 128.341 79.5276 129.701 79.6876ZM150.941 50.7676C150.701 53.1676 150.041 54.8076 148.961 55.6876C147.881 56.5676 146.101 56.9676 143.621 56.8876C140.341 56.7276 137.881 55.7076 136.241 53.8276C134.601 51.9476 134.101 49.4076 134.741 46.2076C135.461 42.5276 136.021 38.9676 136.421 35.5276C136.821 32.0876 137.081 28.6876 137.201 25.3276C137.321 21.9676 137.241 18.6076 136.961 15.2476C136.681 11.8876 136.221 8.44764 135.581 4.92764C135.421 4.28764 135.481 3.68765 135.761 3.12765C136.041 2.56765 136.501 2.20764 137.141 2.04764C138.981 1.64764 140.661 2.02765 142.181 3.18765C143.701 4.34765 145.021 5.96765 146.141 8.04765C147.581 10.7676 148.681 13.7876 149.441 17.1076C150.201 20.4276 150.701 23.2076 150.941 25.4476C153.501 24.5676 156.181 24.1676 158.981 24.2476C161.781 24.3276 164.341 25.0476 166.661 26.4076C167.381 26.9676 167.901 27.6476 168.221 28.4476C168.541 29.2476 168.581 29.9676 168.341 30.6076C168.181 31.3276 167.701 31.9076 166.901 32.3476C166.101 32.7876 164.981 32.8476 163.541 32.5276C161.461 32.1276 159.381 31.9076 157.301 31.8676C155.221 31.8276 153.301 32.1676 151.541 32.8876C151.701 35.2876 151.741 37.9076 151.661 40.7476C151.581 43.5876 151.341 46.9276 150.941 50.7676Z" fill="black"/>
</svg>
