<svg width="310" height="131" viewBox="0 0 310 131" fill="none" xmlns="http://www.w3.org/2000/svg">
<path d="M29.0691 10.936C29.1491 9.656 29.6291 8.756 30.5091 8.236C31.3891 7.716 32.3491 7.536 33.3891 7.696C36.1891 8.096 38.1491 8.956 39.2691 10.276C40.3891 11.596 40.8691 13.416 40.7091 15.736C40.4691 20.536 40.2091 25.636 39.9291 31.036C39.6491 36.436 39.2291 41.256 38.6691 45.496C38.4291 47.576 37.4891 49.256 35.8491 50.536C34.2091 51.816 32.4291 52.456 30.5091 52.456C27.1491 52.456 24.0691 52.516 21.2691 52.636C18.4691 52.756 15.7891 53.136 13.2291 53.776C10.0291 54.496 7.64909 54.116 6.08909 52.636C4.52909 51.156 3.54909 48.736 3.14909 45.376C2.82909 42.576 2.52909 39.956 2.24909 37.516C1.96909 35.076 1.70909 32.696 1.46909 30.376C1.22909 28.056 0.989091 25.696 0.749091 23.296C0.509091 20.896 0.269091 18.376 0.0290909 15.736C-0.130909 14.136 0.369091 12.916 1.52909 12.076C2.68909 11.236 3.94909 10.856 5.30909 10.936C7.14909 11.016 8.64909 11.416 9.80909 12.136C10.9691 12.856 11.6291 13.896 11.7891 15.256C11.9491 16.856 12.0691 18.436 12.1491 19.996C12.2291 21.556 12.3091 23.056 12.3891 24.496C15.1891 23.856 17.8891 23.436 20.4891 23.236C23.0891 23.036 25.7891 23.016 28.5891 23.176C28.6691 21.016 28.7291 18.896 28.7691 16.816C28.8091 14.736 28.9091 12.776 29.0691 10.936ZM12.7491 33.496C12.9091 35.176 13.0291 36.876 13.1091 38.596C13.1891 40.316 13.3091 42.096 13.4691 43.936C16.0291 43.136 18.5691 42.696 21.0891 42.616C23.6091 42.536 25.8691 42.536 27.8691 42.616L28.2291 32.896C25.5091 32.416 22.8291 32.236 20.1891 32.356C17.5491 32.476 15.0691 32.856 12.7491 33.496ZM51.8691 65.656C52.0291 64.616 52.1491 63.556 52.2291 62.476C52.3091 61.396 52.4291 60.296 52.5891 59.176C52.6691 58.296 52.8291 57.516 53.0691 56.836C53.3091 56.156 53.8691 55.856 54.7491 55.936C55.7091 56.016 56.6691 56.156 57.6291 56.356C58.5891 56.556 59.4691 56.936 60.2691 57.496C61.1491 58.136 61.6691 59.016 61.8291 60.136C61.9891 61.256 61.9891 62.536 61.8291 63.976C61.5891 66.936 61.3291 69.776 61.0491 72.496C60.7691 75.216 60.4691 78.056 60.1491 81.016C59.7491 85.176 57.7091 87.216 54.0291 87.136H50.6691C49.3891 87.136 48.0691 87.176 46.7091 87.256C45.3491 87.336 43.9891 87.436 42.6291 87.556C41.2691 87.676 40.0291 87.816 38.9091 87.976C35.7891 88.456 33.9491 86.616 33.3891 82.456C33.0691 79.336 32.7691 76.256 32.4891 73.216C32.2091 70.176 31.9891 67.096 31.8291 63.976C31.8291 63.496 31.8091 62.896 31.7691 62.176C31.7291 61.456 31.7091 60.856 31.7091 60.376C31.7091 59.416 31.8091 58.456 32.0091 57.496C32.2091 56.536 32.9891 56.136 34.3491 56.296C35.5491 56.456 36.6491 56.656 37.6491 56.896C38.6491 57.136 39.4691 57.536 40.1091 58.096C40.7491 58.576 41.0691 59.196 41.0691 59.956V64.396C41.0691 65.236 41.1091 65.936 41.1891 66.496C42.7891 66.336 44.5691 66.196 46.5291 66.076C48.4891 65.956 50.2691 65.816 51.8691 65.656ZM51.7491 71.656C50.3091 71.736 48.6091 71.836 46.6491 71.956C44.6891 72.076 42.9891 72.216 41.5491 72.376L41.7891 80.296C43.2291 79.976 44.8491 79.776 46.6491 79.696C48.4491 79.616 50.0291 79.616 51.3891 79.696L51.7491 71.656ZM51.1491 4.096C50.7491 2.896 50.7491 1.936 51.1491 1.216C51.6291 0.576004 52.5091 0.296004 53.7891 0.376004C55.9491 0.616004 57.8291 1.436 59.4291 2.836C61.0291 4.236 62.3491 5.976 63.3891 8.056C64.2691 9.976 65.0091 12.016 65.6091 14.176C66.2091 16.336 66.7091 18.376 67.1091 20.296C69.1891 19.496 71.4291 19.116 73.8291 19.156C76.2291 19.196 78.5091 19.536 80.6691 20.176C82.1091 20.656 83.1291 21.376 83.7291 22.336C84.3291 23.296 84.5491 24.216 84.3891 25.096C84.2291 25.976 83.7291 26.616 82.8891 27.016C82.0491 27.416 81.0691 27.456 79.9491 27.136C77.8691 26.656 75.7891 26.436 73.7091 26.476C71.6291 26.516 69.7091 26.976 67.9491 27.856C68.1091 31.296 68.0691 34.796 67.8291 38.356C67.5891 41.916 67.1091 45.016 66.3891 47.656C65.1891 52.216 62.3491 54.376 57.8691 54.136C55.7891 53.976 54.0891 53.136 52.7691 51.616C51.4491 50.096 50.9891 48.176 51.3891 45.856C51.7091 44.176 51.9891 42.356 52.2291 40.396C52.4691 38.436 52.6891 36.496 52.8891 34.576C53.0891 32.656 53.2691 30.816 53.4291 29.056C53.5891 27.296 53.6691 25.736 53.6691 24.376C53.7491 20.696 53.5691 17.236 53.1291 13.996C52.6891 10.756 52.0291 7.456 51.1491 4.096Z" fill="black"/>
<path d="M128.429 50.416C126.509 50.656 124.929 50.576 123.689 50.176C122.449 49.776 121.469 49.096 120.749 48.136C120.029 47.176 119.509 46.016 119.189 44.656C118.869 43.296 118.669 41.776 118.589 40.096C118.429 38.656 118.289 36.956 118.169 34.996C118.049 33.036 117.929 30.976 117.809 28.816C117.689 26.656 117.569 24.456 117.449 22.216C117.329 19.976 117.189 17.776 117.029 15.616C116.869 13.536 117.149 11.936 117.869 10.816C118.589 9.696 119.629 9.056 120.989 8.896C122.829 8.816 124.209 9.116 125.129 9.796C126.049 10.476 126.749 11.376 127.229 12.496C128.429 12.256 129.789 12.036 131.309 11.836C132.829 11.636 134.369 11.436 135.929 11.236C137.489 11.036 139.029 10.876 140.549 10.756C142.069 10.636 143.429 10.536 144.629 10.456C148.709 10.296 151.809 10.956 153.929 12.436C156.049 13.916 157.029 16.776 156.869 21.016C156.789 22.376 156.709 23.896 156.629 25.576C156.549 27.256 156.469 28.956 156.389 30.676C156.309 32.396 156.209 34.116 156.089 35.836C155.969 37.556 155.829 39.096 155.669 40.456C155.509 41.896 155.289 43.156 155.009 44.236C154.729 45.316 154.269 46.196 153.629 46.876C152.989 47.556 152.129 48.076 151.049 48.436C149.969 48.796 148.549 48.976 146.789 48.976C143.349 48.976 140.189 49.116 137.309 49.396C134.429 49.676 131.469 50.016 128.429 50.416ZM144.869 39.856C144.869 38.576 144.889 37.156 144.929 35.596C144.969 34.036 145.009 32.436 145.049 30.796C145.089 29.156 145.129 27.556 145.169 25.996C145.209 24.436 145.229 23.056 145.229 21.856C145.229 20.336 144.549 19.576 143.189 19.576C140.629 19.656 138.049 19.836 135.449 20.116C132.849 20.396 130.469 20.696 128.309 21.016L129.869 41.176C132.429 40.616 134.989 40.256 137.549 40.096C140.109 39.936 142.549 39.856 144.869 39.856ZM170.069 64.096C168.469 64.016 166.749 64.236 164.909 64.756C163.069 65.276 161.149 66.176 159.149 67.456C158.269 68.016 157.229 68.216 156.029 68.056C154.829 67.896 153.949 67.256 153.389 66.136C152.909 65.176 152.969 64.136 153.569 63.016C154.169 61.896 155.029 60.896 156.149 60.016C158.149 58.656 160.189 57.556 162.269 56.716C164.349 55.876 167.069 55.376 170.429 55.216C172.509 55.136 174.549 55.356 176.549 55.876C178.549 56.396 180.349 57.216 181.949 58.336C183.549 59.456 184.869 60.896 185.909 62.656C186.949 64.416 187.589 66.496 187.829 68.896C187.989 71.056 187.869 73.396 187.469 75.916C187.069 78.436 186.309 80.736 185.189 82.816C182.709 87.456 179.709 89.336 176.189 88.456C174.349 87.976 173.329 86.836 173.129 85.036C172.929 83.236 173.189 81.336 173.909 79.336C174.549 77.576 175.129 75.936 175.649 74.416C176.169 72.896 176.349 71.416 176.189 69.976C176.029 68.136 175.309 66.716 174.029 65.716C172.749 64.716 171.429 64.176 170.069 64.096ZM190.589 44.416C190.189 47.616 188.969 49.936 186.929 51.376C184.889 52.816 182.829 53.456 180.749 53.296C179.629 53.216 178.569 52.936 177.569 52.456C176.569 51.976 175.729 51.316 175.049 50.476C174.369 49.636 173.869 48.616 173.549 47.416C173.229 46.216 173.229 44.896 173.549 43.456C173.949 41.296 174.289 39.236 174.569 37.276C174.849 35.316 175.109 33.416 175.349 31.576C173.269 30.696 171.269 30.356 169.349 30.556C167.429 30.756 165.669 31.216 164.069 31.936C162.949 32.416 161.869 32.596 160.829 32.476C159.789 32.356 158.989 31.816 158.429 30.856C157.789 29.816 157.789 28.716 158.429 27.556C159.069 26.396 159.949 25.416 161.069 24.616C162.669 23.496 164.889 22.756 167.729 22.396C170.569 22.036 173.269 22.136 175.829 22.696C175.909 19.656 175.829 16.576 175.589 13.456C175.349 10.336 174.949 6.896 174.389 3.136C174.149 0.896 175.109 -0.144 177.269 0.016C179.989 0.256 182.429 1.936 184.589 5.056C186.109 7.136 187.329 9.996 188.249 13.636C189.169 17.276 189.949 21.376 190.589 25.936C190.669 27.136 190.749 28.536 190.829 30.136C190.909 31.736 190.949 33.376 190.949 35.056C190.949 36.736 190.929 38.396 190.889 40.036C190.849 41.676 190.749 43.136 190.589 44.416Z" fill="black"/>
<path d="M205.709 30.4961C204.349 30.5761 203.009 30.3361 201.689 29.7761C200.369 29.2161 199.669 28.1361 199.589 26.5361C199.509 25.2561 200.049 24.2361 201.209 23.4761C202.369 22.7161 203.589 22.1761 204.869 21.8561C213.429 19.6161 222.149 19.0561 231.029 20.1761C232.149 20.3361 233.289 20.5361 234.449 20.7761C235.609 21.0161 236.749 21.3361 237.869 21.7361C239.389 22.2161 240.549 23.1161 241.349 24.4361C242.149 25.7561 242.469 27.1361 242.309 28.5761C242.069 29.9361 241.489 30.9361 240.569 31.5761C239.649 32.2161 238.629 32.4961 237.509 32.4161C235.429 32.2561 233.409 32.0561 231.449 31.8161C229.489 31.5761 227.549 31.3761 225.629 31.2161C225.869 36.3361 225.149 41.6561 223.469 47.1761C227.229 48.5361 230.649 50.1561 233.729 52.0361C236.809 53.9161 239.149 56.6161 240.749 60.1361C241.309 61.4961 241.429 62.9361 241.109 64.4561C240.789 65.9761 240.069 67.0561 238.949 67.6961C237.429 68.5761 235.929 68.8161 234.449 68.4161C232.969 68.0161 231.909 67.1361 231.269 65.7761C229.989 63.0561 228.569 60.6761 227.009 58.6361C225.449 56.5961 223.509 54.8961 221.189 53.5361C220.069 55.6961 218.769 57.7761 217.289 59.7761C215.809 61.7761 214.309 63.5761 212.789 65.1761C212.069 65.9761 211.229 66.6961 210.269 67.3361C209.309 67.9761 208.349 68.4561 207.389 68.7761C206.429 69.0961 205.469 69.1961 204.509 69.0761C203.549 68.9561 202.709 68.5361 201.989 67.8161C200.389 66.3761 199.849 64.7961 200.369 63.0761C200.889 61.3561 201.909 59.7361 203.429 58.2161C207.029 54.6161 209.949 50.4161 212.189 45.6161C214.429 40.8161 215.749 35.8161 216.149 30.6161C214.229 30.5361 212.349 30.4961 210.509 30.4961H205.709ZM287.789 35.5361C288.349 36.1761 288.609 36.9361 288.569 37.8161C288.529 38.6961 288.309 39.4161 287.909 39.9761C286.789 41.1761 285.349 41.4961 283.589 40.9361C282.469 40.6961 281.349 40.4761 280.229 40.2761C279.109 40.0761 277.869 39.9761 276.509 39.9761C275.229 39.8961 273.889 39.9961 272.489 40.2761C271.089 40.5561 269.869 41.0561 268.829 41.7761C268.909 43.7761 268.949 45.9161 268.949 48.1961C268.949 50.4761 268.909 52.7961 268.829 55.1561C268.749 57.5161 268.589 59.8161 268.349 62.0561C268.109 64.2961 267.789 66.3761 267.389 68.2961C266.829 71.0961 265.669 73.2761 263.909 74.8361C262.149 76.396 259.749 76.9761 256.709 76.5761C254.469 76.3361 252.709 75.2361 251.429 73.2761C250.149 71.3161 249.789 68.5361 250.349 64.9361C250.589 63.4961 250.869 61.6161 251.189 59.2961C251.509 56.9761 251.849 54.5361 252.209 51.9761C252.569 49.4161 252.889 46.8961 253.169 44.4161C253.449 41.9361 253.629 39.8561 253.709 38.1761C253.869 34.0161 253.969 29.6361 254.009 25.0361C254.049 20.4361 253.629 16.0961 252.749 12.0161C252.509 10.8161 252.349 9.79605 252.269 8.95605C252.189 8.11606 252.469 7.53605 253.109 7.21605C253.669 6.81605 254.269 6.67606 254.909 6.79606C255.549 6.91606 256.109 7.09606 256.589 7.33606C258.669 8.45606 260.289 9.81606 261.449 11.4161C262.609 13.0161 263.589 14.8161 264.389 16.8161C264.709 17.6961 265.049 18.7961 265.409 20.1161C265.769 21.4361 266.109 22.8361 266.429 24.3161C266.749 25.7961 267.049 27.2561 267.329 28.6961C267.609 30.1361 267.869 31.4561 268.109 32.6561C269.469 32.1761 270.829 31.8561 272.189 31.6961C273.549 31.5361 274.909 31.4961 276.269 31.5761C278.189 31.6561 280.249 31.9561 282.449 32.4761C284.649 32.9961 286.429 34.0161 287.789 35.5361Z" fill="black"/>
<path d="M299.429 77.896C297.669 77.736 296.309 77.036 295.349 75.796C294.389 74.556 293.989 73.056 294.149 71.296C294.309 69.456 295.049 67.976 296.369 66.856C297.689 65.736 299.269 65.216 301.109 65.296C302.709 65.376 304.109 66.016 305.309 67.216C306.509 68.416 307.109 69.856 307.109 71.536C307.109 73.536 306.369 75.156 304.889 76.396C303.409 77.636 301.589 78.136 299.429 77.896ZM305.789 51.736C305.309 53.576 304.489 54.876 303.329 55.636C302.169 56.396 301.029 56.696 299.909 56.536C298.789 56.376 297.809 55.816 296.969 54.856C296.129 53.896 295.749 52.616 295.829 51.016C296.069 44.696 296.189 38.816 296.189 33.376C296.189 27.936 295.909 22.456 295.349 16.936C294.869 12.056 295.049 8.81602 295.889 7.21602C296.729 5.61602 298.549 5.01602 301.349 5.41602C302.789 5.57602 304.009 6.09602 305.009 6.97602C306.009 7.85602 306.829 8.99602 307.469 10.396C308.109 11.796 308.569 13.396 308.849 15.196C309.129 16.996 309.269 18.896 309.269 20.896C309.349 26.576 309.109 31.796 308.549 36.556C307.989 41.316 307.069 46.376 305.789 51.736Z" fill="black"/>
<path d="M4.57202 119.336C4.57202 118.616 5.01202 118.256 5.88202 118.256H24.422C25.302 118.256 25.732 118.626 25.732 119.356C25.732 120.086 25.292 120.406 24.422 120.406H5.88202C5.00202 120.406 4.57202 120.046 4.57202 119.326V119.336Z" fill="black"/>
<path d="M83.452 128.616C83.452 128.916 83.352 129.166 83.152 129.366C82.962 129.556 82.392 129.646 81.442 129.646C80.392 129.646 79.612 129.646 79.102 129.626C77.522 129.626 76.342 129.626 75.562 129.606C73.842 129.576 72.332 129.476 71.042 129.306C69.752 129.136 68.752 128.906 68.062 128.626C66.762 128.096 65.712 127.156 64.902 125.816C64.322 128.376 63.632 129.656 62.842 129.656C62.292 129.656 62.022 129.346 62.022 128.716C62.022 128.446 62.122 128.126 62.322 127.736C62.732 126.936 63.072 125.906 63.342 124.626C63.612 123.346 63.772 122.116 63.802 120.916C63.832 120.166 64.142 119.796 64.712 119.796C65.242 119.796 65.512 120.176 65.512 120.916C65.512 121.366 65.432 122.366 65.282 123.896C65.562 124.416 65.842 124.826 66.122 125.146C66.402 125.466 66.802 125.796 67.322 126.146V118.196H63.342C62.622 118.196 62.262 117.906 62.262 117.326C62.262 116.746 62.622 116.456 63.342 116.456H67.282V113.856H64.122C63.782 113.856 63.512 113.786 63.322 113.636C63.132 113.486 63.042 113.266 63.042 112.966C63.042 112.386 63.402 112.096 64.122 112.096H67.282V109.986C67.282 109.286 67.602 108.936 68.242 108.936C68.882 108.936 69.152 109.286 69.152 109.986V112.096H71.562C71.902 112.096 72.172 112.166 72.362 112.316C72.552 112.466 72.642 112.686 72.642 112.986C72.642 113.566 72.282 113.856 71.562 113.856H69.152V116.456H72.102C72.822 116.456 73.182 116.746 73.182 117.326C73.182 117.626 73.092 117.846 72.922 117.986C72.752 118.126 72.472 118.196 72.102 118.196H69.192V121.176H71.632C71.972 121.176 72.242 121.246 72.432 121.396C72.622 121.546 72.712 121.766 72.712 122.066C72.712 122.646 72.352 122.936 71.632 122.936H69.192V127.156C70.532 127.536 73.202 127.736 77.182 127.766C78.072 127.766 79.072 127.746 80.182 127.696C80.562 127.696 81.272 127.676 82.342 127.646C83.092 127.616 83.462 127.946 83.462 128.626L83.452 128.616ZM73.822 124.066V112.276C73.822 111.686 73.982 111.226 74.292 110.916C74.602 110.606 75.062 110.446 75.652 110.446H80.222C80.972 110.446 81.512 110.606 81.852 110.936C82.192 111.266 82.322 111.786 82.262 112.506V115.976C82.262 116.706 82.102 117.246 81.782 117.586C81.462 117.926 80.942 118.066 80.222 118.016H75.702V123.076C75.702 123.636 75.832 123.986 76.102 124.106C76.262 124.166 76.492 124.216 76.812 124.246C77.132 124.276 77.352 124.296 77.482 124.316C78.012 124.346 78.522 124.366 79.002 124.366C79.482 124.366 80.012 124.346 80.572 124.316C80.792 124.286 80.952 124.116 81.052 123.826C81.152 123.536 81.202 123.056 81.202 122.396C81.202 122.056 81.282 121.796 81.432 121.626C81.582 121.456 81.812 121.366 82.092 121.366C82.432 121.366 82.692 121.456 82.862 121.626C83.032 121.796 83.122 122.076 83.122 122.446C83.122 123.896 82.912 124.866 82.492 125.356C82.262 125.626 81.922 125.806 81.472 125.906C81.022 126.006 80.402 126.056 79.582 126.056C77.962 126.056 76.782 126.016 76.052 125.936C75.322 125.856 74.832 125.736 74.562 125.586C74.082 125.306 73.832 124.796 73.812 124.066H73.822ZM75.702 116.186H79.522C79.802 116.186 80.022 116.106 80.162 115.956C80.302 115.806 80.382 115.576 80.382 115.296V113.166C80.382 112.606 80.092 112.306 79.512 112.276H76.602C75.992 112.276 75.692 112.576 75.692 113.186V116.186H75.702Z" fill="black"/>
<path d="M126.582 111.456C126.922 111.786 127.062 112.296 127.012 113.006V123.486C127.012 124.206 126.852 124.736 126.532 125.066C126.212 125.396 125.702 125.566 124.992 125.546H122.672C121.952 125.546 121.422 125.376 121.092 125.046C120.762 124.716 120.602 124.186 120.632 123.486V113.006C120.632 112.286 120.792 111.756 121.122 111.426C121.452 111.096 121.962 110.936 122.672 110.966H124.992C125.712 110.966 126.242 111.126 126.572 111.456H126.582ZM125.232 113.476C125.232 113.006 124.982 112.756 124.482 112.726H123.212C122.982 112.726 122.802 112.796 122.672 112.926C122.542 113.056 122.472 113.246 122.462 113.476V122.996C122.462 123.226 122.532 123.406 122.662 123.536C122.792 123.666 122.982 123.736 123.212 123.746H124.482C124.952 123.746 125.202 123.496 125.232 122.996V113.476ZM129.192 116.906C128.772 117.456 128.422 117.756 128.162 117.786C127.882 117.806 127.662 117.736 127.502 117.586C127.342 117.436 127.272 117.246 127.272 117.016C127.272 116.686 127.392 116.356 127.652 116.006C128.652 114.626 129.562 112.766 130.392 110.406C130.752 109.426 131.162 108.926 131.612 108.926C132.232 108.926 132.552 109.206 132.552 109.766C132.552 110.066 132.232 110.956 131.592 112.436H139.862C140.632 112.436 141.012 112.746 141.012 113.376C141.012 114.006 140.632 114.286 139.862 114.286H130.742C130.132 115.476 129.622 116.346 129.192 116.896V116.906ZM141.102 125.216C141.102 126.916 140.762 128.086 140.072 128.706C139.492 129.236 137.542 129.506 134.212 129.506C132.052 129.506 130.512 129.286 129.572 128.846C128.622 128.406 128.142 127.686 128.142 126.666C128.142 124.856 130.192 122.476 134.302 119.546C134.532 119.386 134.652 119.266 134.652 119.166C134.652 119.046 134.572 118.976 134.422 118.976H130.442C129.742 118.976 129.392 118.686 129.392 118.106C129.392 117.526 129.742 117.236 130.442 117.236H136.602C137.682 117.236 138.222 117.576 138.222 118.246C138.222 118.576 137.822 118.996 137.022 119.516C136.002 120.176 134.562 121.296 132.682 122.896C130.932 124.376 130.062 125.516 130.062 126.316C130.062 126.986 130.592 127.416 131.652 127.606C132.212 127.696 133.272 127.746 134.812 127.746C136.892 127.746 138.142 127.556 138.562 127.186C138.702 127.066 138.822 126.816 138.922 126.446C139.022 126.076 139.082 125.626 139.102 125.076C139.132 124.466 139.482 124.166 140.132 124.166C140.782 124.166 141.092 124.516 141.092 125.216H141.102Z" fill="black"/>
<path d="M178.022 116.236C177.462 116.236 177.182 115.936 177.182 115.346C177.182 115.006 177.372 114.666 177.742 114.336C179.242 112.956 180.472 111.346 181.442 109.486C181.742 108.936 182.082 108.666 182.472 108.666C182.772 108.666 183.012 108.766 183.182 108.956C183.352 109.146 183.412 109.346 183.332 109.556L183.142 110.006C184.192 110.736 185.022 111.386 185.622 111.956C186.372 112.626 186.742 113.076 186.742 113.316C186.742 113.896 186.442 114.186 185.852 114.186C185.602 114.186 185.312 113.996 184.982 113.626C184.402 113.006 183.562 112.216 182.452 111.256C181.972 112.086 181.372 112.926 180.672 113.786L184.192 113.766C184.782 113.766 185.082 114.016 185.082 114.516C185.082 115.016 184.782 115.266 184.192 115.266H180.962C180.382 115.266 180.082 115.016 180.052 114.516L179.772 114.846C178.912 115.786 178.322 116.256 178.012 116.256L178.022 116.236ZM185.172 128.076C185.172 128.556 184.902 128.806 184.372 128.806H180.462V129.396C180.462 130.016 180.182 130.336 179.622 130.336C179.062 130.336 178.782 130.026 178.782 129.396V118.006C178.782 116.806 179.372 116.206 180.562 116.206H184.082C185.272 116.206 185.862 116.806 185.862 118.006V121.526C185.862 122.716 185.272 123.306 184.082 123.306H180.472V124.646H184.502C185.032 124.646 185.302 124.886 185.302 125.376C185.302 125.866 185.032 126.126 184.502 126.126H180.472V127.346H184.382C184.912 127.346 185.182 127.596 185.182 128.096L185.172 128.076ZM180.462 119.006H184.162V118.206C184.162 117.816 183.962 117.616 183.552 117.596H181.042C180.652 117.596 180.452 117.796 180.452 118.206V119.006H180.462ZM180.462 121.866H183.552C183.962 121.866 184.162 121.666 184.162 121.256V120.416H180.462V121.866ZM198.582 128.826C198.582 129.526 198.262 129.876 197.622 129.876C197.212 129.876 196.582 129.536 195.722 128.866C194.892 128.226 194.242 127.616 193.772 127.036C191.912 128.986 190.502 129.966 189.552 129.966C188.972 129.966 188.682 129.656 188.682 129.026C188.682 128.666 188.912 128.356 189.382 128.086C190.722 127.356 191.802 126.526 192.612 125.606L192.632 125.536C191.992 124.556 191.472 123.336 191.062 121.906C190.652 120.496 190.452 119.526 190.452 118.976C190.452 118.396 190.732 118.106 191.292 118.106C191.772 118.106 192.072 118.476 192.182 119.206C192.542 121.326 193.042 122.926 193.682 123.986H193.822C194.372 123.046 194.842 121.936 195.252 120.636C195.672 119.326 195.882 118.386 195.882 117.826C195.882 117.406 195.622 117.196 195.112 117.196H189.492C189.442 119.886 189.292 122.066 189.022 123.736C188.772 125.326 188.342 126.726 187.732 127.936C187.142 129.136 186.592 129.736 186.092 129.736C185.502 129.736 185.202 129.416 185.202 128.776C185.202 128.606 185.322 128.336 185.582 127.976L186.052 127.296C186.672 126.206 187.122 124.896 187.392 123.386C187.692 121.686 187.842 118.936 187.842 115.156V112.346C187.842 110.796 188.562 110.026 190.002 110.026H197.482C198.212 110.026 198.582 110.326 198.582 110.916C198.582 111.506 198.212 111.806 197.482 111.806H190.402C190.092 111.806 189.862 111.886 189.722 112.036C189.582 112.186 189.512 112.446 189.512 112.806V115.476H196.032C197.282 115.476 197.912 115.926 197.912 116.836C197.912 117.676 197.642 118.956 197.112 120.656C196.552 122.496 195.812 124.106 194.912 125.486L194.932 125.576C195.772 126.466 196.802 127.236 198.002 127.876C198.392 128.096 198.592 128.406 198.592 128.816L198.582 128.826Z" fill="black"/>
<path d="M236.162 124.856C235.822 124.516 235.672 123.986 235.712 123.246V113.046C235.712 112.296 235.882 111.756 236.212 111.416C236.542 111.076 237.082 110.926 237.822 110.956H239.812C240.582 110.956 241.132 111.116 241.472 111.446C241.812 111.776 241.972 112.306 241.942 113.036V123.236C241.942 123.986 241.772 124.526 241.442 124.866C241.112 125.206 240.562 125.366 239.812 125.346H237.822C237.052 125.346 236.502 125.176 236.162 124.846V124.856ZM240.122 122.826V113.496C240.122 113.046 239.882 112.796 239.392 112.766H238.272C237.822 112.766 237.572 113.006 237.542 113.496V122.826C237.542 123.276 237.782 123.526 238.272 123.556H239.392C239.842 123.556 240.092 123.316 240.122 122.826ZM244.412 129.276C243.852 128.996 243.572 128.336 243.572 127.306V112.286C243.572 111.566 243.752 111.016 244.112 110.646C244.452 110.306 244.992 110.126 245.732 110.126H253.072C253.872 110.126 254.412 110.296 254.712 110.646C255.052 111.036 255.232 111.586 255.232 112.286V118.566C255.292 119.346 255.142 119.916 254.782 120.276C254.422 120.636 253.852 120.796 253.072 120.746H245.412V126.866C245.412 127.316 245.682 127.606 246.212 127.736C246.402 127.786 246.882 127.806 247.652 127.816C248.422 127.826 249.342 127.826 250.402 127.826C251.842 127.826 252.812 127.746 253.332 127.596C253.812 127.436 254.082 126.886 254.132 125.936C254.182 125.016 254.532 124.556 255.182 124.556C255.882 124.556 256.232 124.906 256.232 125.606C256.232 126.666 256.102 127.516 255.832 128.136C255.712 128.446 255.532 128.716 255.302 128.936C255.072 129.156 254.812 129.316 254.512 129.406C253.852 129.606 252.042 129.706 249.072 129.706C246.522 129.706 244.972 129.566 244.412 129.286V129.276ZM248.392 111.886H246.352C245.712 111.886 245.402 112.186 245.412 112.796V118.986H248.392V111.886ZM253.362 118.046V112.796C253.362 112.176 253.062 111.866 252.452 111.886H250.222V118.986H252.452C253.072 118.986 253.382 118.676 253.362 118.046Z" fill="black"/>
<path d="M302.012 128.706C301.712 128.376 301.562 128.006 301.562 127.606C301.562 127.206 301.722 126.826 302.032 126.486C302.342 126.186 302.732 126.036 303.182 126.036C303.572 126.036 303.932 126.186 304.262 126.486C304.562 126.796 304.712 127.176 304.712 127.606C304.712 128.086 304.552 128.466 304.242 128.726C303.932 129.036 303.562 129.196 303.142 129.196C302.692 129.196 302.312 129.036 302.022 128.706H302.012ZM302.202 123.386L301.712 111.386C301.712 110.466 302.192 110.006 303.142 110.006C304.092 110.006 304.552 110.476 304.552 111.416V111.866L304.032 123.396C304.012 124.056 303.722 124.376 303.142 124.376C302.532 124.376 302.222 124.046 302.202 123.396V123.386Z" fill="black"/>
</svg>
